<?xml version="1.0" encoding="utf-8" standalone="no"?>
<!DOCTYPE svg PUBLIC "-//W3C//DTD SVG 1.1//EN"
  "http://www.w3.org/Graphics/SVG/1.1/DTD/svg11.dtd">
<svg xmlns:xlink="http://www.w3.org/1999/xlink" width="508.54125pt" height="325.986375pt" viewBox="0 0 508.54125 325.986375" xmlns="http://www.w3.org/2000/svg" version="1.1">
 <metadata>
  <rdf:RDF xmlns:dc="http://purl.org/dc/elements/1.1/" xmlns:cc="http://creativecommons.org/ns#" xmlns:rdf="http://www.w3.org/1999/02/22-rdf-syntax-ns#">
   <cc:Work>
    <dc:type rdf:resource="http://purl.org/dc/dcmitype/StillImage"/>
    <dc:date>2026-07-01T13:28:05.325978</dc:date>
    <dc:format>image/svg+xml</dc:format>
    <dc:creator>
     <cc:Agent>
      <dc:title>Matplotlib v3.10.9, https://matplotlib.org/</dc:title>
     </cc:Agent>
    </dc:creator>
   </cc:Work>
  </rdf:RDF>
 </metadata>
 <defs>
  <style type="text/css">*{stroke-linejoin: round; stroke-linecap: butt}</style>
 </defs>
 <g id="figure_1">
  <g id="patch_1">
   <path d="M 0 325.986375
L 508.54125 325.986375
L 508.54125 0
L 0 0
z
" style="fill: #ffffff"/>
  </g>
  <g id="axes_1">
   <g id="patch_2">
    <path d="M 43.78125 288.430125
L 501.34125 288.430125
L 501.34125 22.318125
L 43.78125 22.318125
z
" style="fill: #ffffff"/>
   </g>
   <g id="matplotlib.axis_1">
    <g id="xtick_1">
     <g id="line2d_1">
      <path d="M 69.20125 288.430125
L 69.20125 22.318125
" clip-path="url(#pbe98582702)" style="fill: none; stroke: #b0b0b0; stroke-opacity: 0.25; stroke-width: 0.8; stroke-linecap: square"/>
     </g>
     <g id="line2d_2">
      <defs>
       <path id="m97bdff9979" d="M 0 0
L 0 3.5
" style="stroke: #000000; stroke-width: 0.8"/>
      </defs>
      <g>
       <use xlink:href="#m97bdff9979" x="69.20125" y="288.430125" style="stroke: #000000; stroke-width: 0.8"/>
      </g>
     </g>
     <g id="text_1">
      <!-- 鈭?0 -->
      <g transform="translate(58.648906 303.028562) scale(0.1 -0.1)">
       <defs>
        <path id="DejaVuSans-2212" d="M 678 2272
L 4684 2272
L 4684 1741
L 678 1741
L 678 2272
z
" transform="scale(0.015625)"/>
        <path id="DejaVuSans-38" d="M 2034 2216
Q 1584 2216 1326 1975
Q 1069 1734 1069 1313
Q 1069 891 1326 650
Q 1584 409 2034 409
Q 2484 409 2743 651
Q 3003 894 3003 1313
Q 3003 1734 2745 1975
Q 2488 2216 2034 2216
z
M 1403 2484
Q 997 2584 770 2862
Q 544 3141 544 3541
Q 544 4100 942 4425
Q 1341 4750 2034 4750
Q 2731 4750 3128 4425
Q 3525 4100 3525 3541
Q 3525 3141 3298 2862
Q 3072 2584 2669 2484
Q 3125 2378 3379 2068
Q 3634 1759 3634 1313
Q 3634 634 3220 271
Q 2806 -91 2034 -91
Q 1263 -91 848 271
Q 434 634 434 1313
Q 434 1759 690 2068
Q 947 2378 1403 2484
z
M 1172 3481
Q 1172 3119 1398 2916
Q 1625 2713 2034 2713
Q 2441 2713 2670 2916
Q 2900 3119 2900 3481
Q 2900 3844 2670 4047
Q 2441 4250 2034 4250
Q 1625 4250 1398 4047
Q 1172 3844 1172 3481
z
" transform="scale(0.015625)"/>
        <path id="DejaVuSans-30" d="M 2034 4250
Q 1547 4250 1301 3770
Q 1056 3291 1056 2328
Q 1056 1369 1301 889
Q 1547 409 2034 409
Q 2525 409 2770 889
Q 3016 1369 3016 2328
Q 3016 3291 2770 3770
Q 2525 4250 2034 4250
z
M 2034 4750
Q 2819 4750 3233 4129
Q 3647 3509 3647 2328
Q 3647 1150 3233 529
Q 2819 -91 2034 -91
Q 1250 -91 836 529
Q 422 1150 422 2328
Q 422 3509 836 4129
Q 1250 4750 2034 4750
z
" transform="scale(0.015625)"/>
       </defs>
       <use xlink:href="#DejaVuSans-2212"/>
       <use xlink:href="#DejaVuSans-38" transform="translate(83.789062 0)"/>
       <use xlink:href="#DejaVuSans-30" transform="translate(147.412109 0)"/>
      </g>
     </g>
    </g>
    <g id="xtick_2">
     <g id="line2d_3">
      <path d="M 120.04125 288.430125
L 120.04125 22.318125
" clip-path="url(#pbe98582702)" style="fill: none; stroke: #b0b0b0; stroke-opacity: 0.25; stroke-width: 0.8; stroke-linecap: square"/>
     </g>
     <g id="line2d_4">
      <g>
       <use xlink:href="#m97bdff9979" x="120.04125" y="288.430125" style="stroke: #000000; stroke-width: 0.8"/>
      </g>
     </g>
     <g id="text_2">
      <!-- 鈭?0 -->
      <g transform="translate(109.488906 303.028562) scale(0.1 -0.1)">
       <defs>
        <path id="DejaVuSans-36" d="M 2113 2584
Q 1688 2584 1439 2293
Q 1191 2003 1191 1497
Q 1191 994 1439 701
Q 1688 409 2113 409
Q 2538 409 2786 701
Q 3034 994 3034 1497
Q 3034 2003 2786 2293
Q 2538 2584 2113 2584
z
M 3366 4563
L 3366 3988
Q 3128 4100 2886 4159
Q 2644 4219 2406 4219
Q 1781 4219 1451 3797
Q 1122 3375 1075 2522
Q 1259 2794 1537 2939
Q 1816 3084 2150 3084
Q 2853 3084 3261 2657
Q 3669 2231 3669 1497
Q 3669 778 3244 343
Q 2819 -91 2113 -91
Q 1303 -91 875 529
Q 447 1150 447 2328
Q 447 3434 972 4092
Q 1497 4750 2381 4750
Q 2619 4750 2861 4703
Q 3103 4656 3366 4563
z
" transform="scale(0.015625)"/>
       </defs>
       <use xlink:href="#DejaVuSans-2212"/>
       <use xlink:href="#DejaVuSans-36" transform="translate(83.789062 0)"/>
       <use xlink:href="#DejaVuSans-30" transform="translate(147.412109 0)"/>
      </g>
     </g>
    </g>
    <g id="xtick_3">
     <g id="line2d_5">
      <path d="M 170.88125 288.430125
L 170.88125 22.318125
" clip-path="url(#pbe98582702)" style="fill: none; stroke: #b0b0b0; stroke-opacity: 0.25; stroke-width: 0.8; stroke-linecap: square"/>
     </g>
     <g id="line2d_6">
      <g>
       <use xlink:href="#m97bdff9979" x="170.88125" y="288.430125" style="stroke: #000000; stroke-width: 0.8"/>
      </g>
     </g>
     <g id="text_3">
      <!-- 鈭?0 -->
      <g transform="translate(160.328906 303.028562) scale(0.1 -0.1)">
       <defs>
        <path id="DejaVuSans-34" d="M 2419 4116
L 825 1625
L 2419 1625
L 2419 4116
z
M 2253 4666
L 3047 4666
L 3047 1625
L 3713 1625
L 3713 1100
L 3047 1100
L 3047 0
L 2419 0
L 2419 1100
L 313 1100
L 313 1709
L 2253 4666
z
" transform="scale(0.015625)"/>
       </defs>
       <use xlink:href="#DejaVuSans-2212"/>
       <use xlink:href="#DejaVuSans-34" transform="translate(83.789062 0)"/>
       <use xlink:href="#DejaVuSans-30" transform="translate(147.412109 0)"/>
      </g>
     </g>
    </g>
    <g id="xtick_4">
     <g id="line2d_7">
      <path d="M 221.72125 288.430125
L 221.72125 22.318125
" clip-path="url(#pbe98582702)" style="fill: none; stroke: #b0b0b0; stroke-opacity: 0.25; stroke-width: 0.8; stroke-linecap: square"/>
     </g>
     <g id="line2d_8">
      <g>
       <use xlink:href="#m97bdff9979" x="221.72125" y="288.430125" style="stroke: #000000; stroke-width: 0.8"/>
      </g>
     </g>
     <g id="text_4">
      <!-- 鈭?0 -->
      <g transform="translate(211.168906 303.028562) scale(0.1 -0.1)">
       <defs>
        <path id="DejaVuSans-32" d="M 1228 531
L 3431 531
L 3431 0
L 469 0
L 469 531
Q 828 903 1448 1529
Q 2069 2156 2228 2338
Q 2531 2678 2651 2914
Q 2772 3150 2772 3378
Q 2772 3750 2511 3984
Q 2250 4219 1831 4219
Q 1534 4219 1204 4116
Q 875 4013 500 3803
L 500 4441
Q 881 4594 1212 4672
Q 1544 4750 1819 4750
Q 2544 4750 2975 4387
Q 3406 4025 3406 3419
Q 3406 3131 3298 2873
Q 3191 2616 2906 2266
Q 2828 2175 2409 1742
Q 1991 1309 1228 531
z
" transform="scale(0.015625)"/>
       </defs>
       <use xlink:href="#DejaVuSans-2212"/>
       <use xlink:href="#DejaVuSans-32" transform="translate(83.789062 0)"/>
       <use xlink:href="#DejaVuSans-30" transform="translate(147.412109 0)"/>
      </g>
     </g>
    </g>
    <g id="xtick_5">
     <g id="line2d_9">
      <path d="M 272.56125 288.430125
L 272.56125 22.318125
" clip-path="url(#pbe98582702)" style="fill: none; stroke: #b0b0b0; stroke-opacity: 0.25; stroke-width: 0.8; stroke-linecap: square"/>
     </g>
     <g id="line2d_10">
      <g>
       <use xlink:href="#m97bdff9979" x="272.56125" y="288.430125" style="stroke: #000000; stroke-width: 0.8"/>
      </g>
     </g>
     <g id="text_5">
      <!-- 0 -->
      <g transform="translate(269.38 303.028562) scale(0.1 -0.1)">
       <use xlink:href="#DejaVuSans-30"/>
      </g>
     </g>
    </g>
    <g id="xtick_6">
     <g id="line2d_11">
      <path d="M 323.40125 288.430125
L 323.40125 22.318125
" clip-path="url(#pbe98582702)" style="fill: none; stroke: #b0b0b0; stroke-opacity: 0.25; stroke-width: 0.8; stroke-linecap: square"/>
     </g>
     <g id="line2d_12">
      <g>
       <use xlink:href="#m97bdff9979" x="323.40125" y="288.430125" style="stroke: #000000; stroke-width: 0.8"/>
      </g>
     </g>
     <g id="text_6">
      <!-- 20 -->
      <g transform="translate(317.03875 303.028562) scale(0.1 -0.1)">
       <use xlink:href="#DejaVuSans-32"/>
       <use xlink:href="#DejaVuSans-30" transform="translate(63.623047 0)"/>
      </g>
     </g>
    </g>
    <g id="xtick_7">
     <g id="line2d_13">
      <path d="M 374.24125 288.430125
L 374.24125 22.318125
" clip-path="url(#pbe98582702)" style="fill: none; stroke: #b0b0b0; stroke-opacity: 0.25; stroke-width: 0.8; stroke-linecap: square"/>
     </g>
     <g id="line2d_14">
      <g>
       <use xlink:href="#m97bdff9979" x="374.24125" y="288.430125" style="stroke: #000000; stroke-width: 0.8"/>
      </g>
     </g>
     <g id="text_7">
      <!-- 40 -->
      <g transform="translate(367.87875 303.028562) scale(0.1 -0.1)">
       <use xlink:href="#DejaVuSans-34"/>
       <use xlink:href="#DejaVuSans-30" transform="translate(63.623047 0)"/>
      </g>
     </g>
    </g>
    <g id="xtick_8">
     <g id="line2d_15">
      <path d="M 425.08125 288.430125
L 425.08125 22.318125
" clip-path="url(#pbe98582702)" style="fill: none; stroke: #b0b0b0; stroke-opacity: 0.25; stroke-width: 0.8; stroke-linecap: square"/>
     </g>
     <g id="line2d_16">
      <g>
       <use xlink:href="#m97bdff9979" x="425.08125" y="288.430125" style="stroke: #000000; stroke-width: 0.8"/>
      </g>
     </g>
     <g id="text_8">
      <!-- 60 -->
      <g transform="translate(418.71875 303.028562) scale(0.1 -0.1)">
       <use xlink:href="#DejaVuSans-36"/>
       <use xlink:href="#DejaVuSans-30" transform="translate(63.623047 0)"/>
      </g>
     </g>
    </g>
    <g id="xtick_9">
     <g id="line2d_17">
      <path d="M 475.92125 288.430125
L 475.92125 22.318125
" clip-path="url(#pbe98582702)" style="fill: none; stroke: #b0b0b0; stroke-opacity: 0.25; stroke-width: 0.8; stroke-linecap: square"/>
     </g>
     <g id="line2d_18">
      <g>
       <use xlink:href="#m97bdff9979" x="475.92125" y="288.430125" style="stroke: #000000; stroke-width: 0.8"/>
      </g>
     </g>
     <g id="text_9">
      <!-- 80 -->
      <g transform="translate(469.55875 303.028562) scale(0.1 -0.1)">
       <use xlink:href="#DejaVuSans-38"/>
       <use xlink:href="#DejaVuSans-30" transform="translate(63.623047 0)"/>
      </g>
     </g>
    </g>
    <g id="text_10">
     <!-- signed angle from surface normal (deg) -->
     <g transform="translate(173.197969 316.706687) scale(0.1 -0.1)">
      <defs>
       <path id="DejaVuSans-73" d="M 2834 3397
L 2834 2853
Q 2591 2978 2328 3040
Q 2066 3103 1784 3103
Q 1356 3103 1142 2972
Q 928 2841 928 2578
Q 928 2378 1081 2264
Q 1234 2150 1697 2047
L 1894 2003
Q 2506 1872 2764 1633
Q 3022 1394 3022 966
Q 3022 478 2636 193
Q 2250 -91 1575 -91
Q 1294 -91 989 -36
Q 684 19 347 128
L 347 722
Q 666 556 975 473
Q 1284 391 1588 391
Q 1994 391 2212 530
Q 2431 669 2431 922
Q 2431 1156 2273 1281
Q 2116 1406 1581 1522
L 1381 1569
Q 847 1681 609 1914
Q 372 2147 372 2553
Q 372 3047 722 3315
Q 1072 3584 1716 3584
Q 2034 3584 2315 3537
Q 2597 3491 2834 3397
z
" transform="scale(0.015625)"/>
       <path id="DejaVuSans-69" d="M 603 3500
L 1178 3500
L 1178 0
L 603 0
L 603 3500
z
M 603 4863
L 1178 4863
L 1178 4134
L 603 4134
L 603 4863
z
" transform="scale(0.015625)"/>
       <path id="DejaVuSans-67" d="M 2906 1791
Q 2906 2416 2648 2759
Q 2391 3103 1925 3103
Q 1463 3103 1205 2759
Q 947 2416 947 1791
Q 947 1169 1205 825
Q 1463 481 1925 481
Q 2391 481 2648 825
Q 2906 1169 2906 1791
z
M 3481 434
Q 3481 -459 3084 -895
Q 2688 -1331 1869 -1331
Q 1566 -1331 1297 -1286
Q 1028 -1241 775 -1147
L 775 -588
Q 1028 -725 1275 -790
Q 1522 -856 1778 -856
Q 2344 -856 2625 -561
Q 2906 -266 2906 331
L 2906 616
Q 2728 306 2450 153
Q 2172 0 1784 0
Q 1141 0 747 490
Q 353 981 353 1791
Q 353 2603 747 3093
Q 1141 3584 1784 3584
Q 2172 3584 2450 3431
Q 2728 3278 2906 2969
L 2906 3500
L 3481 3500
L 3481 434
z
" transform="scale(0.015625)"/>
       <path id="DejaVuSans-6e" d="M 3513 2113
L 3513 0
L 2938 0
L 2938 2094
Q 2938 2591 2744 2837
Q 2550 3084 2163 3084
Q 1697 3084 1428 2787
Q 1159 2491 1159 1978
L 1159 0
L 581 0
L 581 3500
L 1159 3500
L 1159 2956
Q 1366 3272 1645 3428
Q 1925 3584 2291 3584
Q 2894 3584 3203 3211
Q 3513 2838 3513 2113
z
" transform="scale(0.015625)"/>
       <path id="DejaVuSans-65" d="M 3597 1894
L 3597 1613
L 953 1613
Q 991 1019 1311 708
Q 1631 397 2203 397
Q 2534 397 2845 478
Q 3156 559 3463 722
L 3463 178
Q 3153 47 2828 -22
Q 2503 -91 2169 -91
Q 1331 -91 842 396
Q 353 884 353 1716
Q 353 2575 817 3079
Q 1281 3584 2069 3584
Q 2775 3584 3186 3129
Q 3597 2675 3597 1894
z
M 3022 2063
Q 3016 2534 2758 2815
Q 2500 3097 2075 3097
Q 1594 3097 1305 2825
Q 1016 2553 972 2059
L 3022 2063
z
" transform="scale(0.015625)"/>
       <path id="DejaVuSans-64" d="M 2906 2969
L 2906 4863
L 3481 4863
L 3481 0
L 2906 0
L 2906 525
Q 2725 213 2448 61
Q 2172 -91 1784 -91
Q 1150 -91 751 415
Q 353 922 353 1747
Q 353 2572 751 3078
Q 1150 3584 1784 3584
Q 2172 3584 2448 3432
Q 2725 3281 2906 2969
z
M 947 1747
Q 947 1113 1208 752
Q 1469 391 1925 391
Q 2381 391 2643 752
Q 2906 1113 2906 1747
Q 2906 2381 2643 2742
Q 2381 3103 1925 3103
Q 1469 3103 1208 2742
Q 947 2381 947 1747
z
" transform="scale(0.015625)"/>
       <path id="DejaVuSans-20" transform="scale(0.015625)"/>
       <path id="DejaVuSans-61" d="M 2194 1759
Q 1497 1759 1228 1600
Q 959 1441 959 1056
Q 959 750 1161 570
Q 1363 391 1709 391
Q 2188 391 2477 730
Q 2766 1069 2766 1631
L 2766 1759
L 2194 1759
z
M 3341 1997
L 3341 0
L 2766 0
L 2766 531
Q 2569 213 2275 61
Q 1981 -91 1556 -91
Q 1019 -91 701 211
Q 384 513 384 1019
Q 384 1609 779 1909
Q 1175 2209 1959 2209
L 2766 2209
L 2766 2266
Q 2766 2663 2505 2880
Q 2244 3097 1772 3097
Q 1472 3097 1187 3025
Q 903 2953 641 2809
L 641 3341
Q 956 3463 1253 3523
Q 1550 3584 1831 3584
Q 2591 3584 2966 3190
Q 3341 2797 3341 1997
z
" transform="scale(0.015625)"/>
       <path id="DejaVuSans-6c" d="M 603 4863
L 1178 4863
L 1178 0
L 603 0
L 603 4863
z
" transform="scale(0.015625)"/>
       <path id="DejaVuSans-66" d="M 2375 4863
L 2375 4384
L 1825 4384
Q 1516 4384 1395 4259
Q 1275 4134 1275 3809
L 1275 3500
L 2222 3500
L 2222 3053
L 1275 3053
L 1275 0
L 697 0
L 697 3053
L 147 3053
L 147 3500
L 697 3500
L 697 3744
Q 697 4328 969 4595
Q 1241 4863 1831 4863
L 2375 4863
z
" transform="scale(0.015625)"/>
       <path id="DejaVuSans-72" d="M 2631 2963
Q 2534 3019 2420 3045
Q 2306 3072 2169 3072
Q 1681 3072 1420 2755
Q 1159 2438 1159 1844
L 1159 0
L 581 0
L 581 3500
L 1159 3500
L 1159 2956
Q 1341 3275 1631 3429
Q 1922 3584 2338 3584
Q 2397 3584 2469 3576
Q 2541 3569 2628 3553
L 2631 2963
z
" transform="scale(0.015625)"/>
       <path id="DejaVuSans-6f" d="M 1959 3097
Q 1497 3097 1228 2736
Q 959 2375 959 1747
Q 959 1119 1226 758
Q 1494 397 1959 397
Q 2419 397 2687 759
Q 2956 1122 2956 1747
Q 2956 2369 2687 2733
Q 2419 3097 1959 3097
z
M 1959 3584
Q 2709 3584 3137 3096
Q 3566 2609 3566 1747
Q 3566 888 3137 398
Q 2709 -91 1959 -91
Q 1206 -91 779 398
Q 353 888 353 1747
Q 353 2609 779 3096
Q 1206 3584 1959 3584
z
" transform="scale(0.015625)"/>
       <path id="DejaVuSans-6d" d="M 3328 2828
Q 3544 3216 3844 3400
Q 4144 3584 4550 3584
Q 5097 3584 5394 3201
Q 5691 2819 5691 2113
L 5691 0
L 5113 0
L 5113 2094
Q 5113 2597 4934 2840
Q 4756 3084 4391 3084
Q 3944 3084 3684 2787
Q 3425 2491 3425 1978
L 3425 0
L 2847 0
L 2847 2094
Q 2847 2600 2669 2842
Q 2491 3084 2119 3084
Q 1678 3084 1418 2786
Q 1159 2488 1159 1978
L 1159 0
L 581 0
L 581 3500
L 1159 3500
L 1159 2956
Q 1356 3278 1631 3431
Q 1906 3584 2284 3584
Q 2666 3584 2933 3390
Q 3200 3197 3328 2828
z
" transform="scale(0.015625)"/>
       <path id="DejaVuSans-75" d="M 544 1381
L 544 3500
L 1119 3500
L 1119 1403
Q 1119 906 1312 657
Q 1506 409 1894 409
Q 2359 409 2629 706
Q 2900 1003 2900 1516
L 2900 3500
L 3475 3500
L 3475 0
L 2900 0
L 2900 538
Q 2691 219 2414 64
Q 2138 -91 1772 -91
Q 1169 -91 856 284
Q 544 659 544 1381
z
M 1991 3584
L 1991 3584
z
" transform="scale(0.015625)"/>
       <path id="DejaVuSans-63" d="M 3122 3366
L 3122 2828
Q 2878 2963 2633 3030
Q 2388 3097 2138 3097
Q 1578 3097 1268 2742
Q 959 2388 959 1747
Q 959 1106 1268 751
Q 1578 397 2138 397
Q 2388 397 2633 464
Q 2878 531 3122 666
L 3122 134
Q 2881 22 2623 -34
Q 2366 -91 2075 -91
Q 1284 -91 818 406
Q 353 903 353 1747
Q 353 2603 823 3093
Q 1294 3584 2113 3584
Q 2378 3584 2631 3529
Q 2884 3475 3122 3366
z
" transform="scale(0.015625)"/>
       <path id="DejaVuSans-28" d="M 1984 4856
Q 1566 4138 1362 3434
Q 1159 2731 1159 2009
Q 1159 1288 1364 580
Q 1569 -128 1984 -844
L 1484 -844
Q 1016 -109 783 600
Q 550 1309 550 2009
Q 550 2706 781 3412
Q 1013 4119 1484 4856
L 1984 4856
z
" transform="scale(0.015625)"/>
       <path id="DejaVuSans-29" d="M 513 4856
L 1013 4856
Q 1481 4119 1714 3412
Q 1947 2706 1947 2009
Q 1947 1309 1714 600
Q 1481 -109 1013 -844
L 513 -844
Q 928 -128 1133 580
Q 1338 1288 1338 2009
Q 1338 2731 1133 3434
Q 928 4138 513 4856
z
" transform="scale(0.015625)"/>
      </defs>
      <use xlink:href="#DejaVuSans-73"/>
      <use xlink:href="#DejaVuSans-69" transform="translate(52.099609 0)"/>
      <use xlink:href="#DejaVuSans-67" transform="translate(79.882812 0)"/>
      <use xlink:href="#DejaVuSans-6e" transform="translate(143.359375 0)"/>
      <use xlink:href="#DejaVuSans-65" transform="translate(206.738281 0)"/>
      <use xlink:href="#DejaVuSans-64" transform="translate(268.261719 0)"/>
      <use xlink:href="#DejaVuSans-20" transform="translate(331.738281 0)"/>
      <use xlink:href="#DejaVuSans-61" transform="translate(363.525391 0)"/>
      <use xlink:href="#DejaVuSans-6e" transform="translate(424.804688 0)"/>
      <use xlink:href="#DejaVuSans-67" transform="translate(488.183594 0)"/>
      <use xlink:href="#DejaVuSans-6c" transform="translate(551.660156 0)"/>
      <use xlink:href="#DejaVuSans-65" transform="translate(579.443359 0)"/>
      <use xlink:href="#DejaVuSans-20" transform="translate(640.966797 0)"/>
      <use xlink:href="#DejaVuSans-66" transform="translate(672.753906 0)"/>
      <use xlink:href="#DejaVuSans-72" transform="translate(707.958984 0)"/>
      <use xlink:href="#DejaVuSans-6f" transform="translate(746.822266 0)"/>
      <use xlink:href="#DejaVuSans-6d" transform="translate(808.003906 0)"/>
      <use xlink:href="#DejaVuSans-20" transform="translate(905.416016 0)"/>
      <use xlink:href="#DejaVuSans-73" transform="translate(937.203125 0)"/>
      <use xlink:href="#DejaVuSans-75" transform="translate(989.302734 0)"/>
      <use xlink:href="#DejaVuSans-72" transform="translate(1052.681641 0)"/>
      <use xlink:href="#DejaVuSans-66" transform="translate(1093.794922 0)"/>
      <use xlink:href="#DejaVuSans-61" transform="translate(1129 0)"/>
      <use xlink:href="#DejaVuSans-63" transform="translate(1190.279297 0)"/>
      <use xlink:href="#DejaVuSans-65" transform="translate(1245.259766 0)"/>
      <use xlink:href="#DejaVuSans-20" transform="translate(1306.783203 0)"/>
      <use xlink:href="#DejaVuSans-6e" transform="translate(1338.570312 0)"/>
      <use xlink:href="#DejaVuSans-6f" transform="translate(1401.949219 0)"/>
      <use xlink:href="#DejaVuSans-72" transform="translate(1463.130859 0)"/>
      <use xlink:href="#DejaVuSans-6d" transform="translate(1502.494141 0)"/>
      <use xlink:href="#DejaVuSans-61" transform="translate(1599.90625 0)"/>
      <use xlink:href="#DejaVuSans-6c" transform="translate(1661.185547 0)"/>
      <use xlink:href="#DejaVuSans-20" transform="translate(1688.96875 0)"/>
      <use xlink:href="#DejaVuSans-28" transform="translate(1720.755859 0)"/>
      <use xlink:href="#DejaVuSans-64" transform="translate(1759.769531 0)"/>
      <use xlink:href="#DejaVuSans-65" transform="translate(1823.246094 0)"/>
      <use xlink:href="#DejaVuSans-67" transform="translate(1884.769531 0)"/>
      <use xlink:href="#DejaVuSans-29" transform="translate(1948.246094 0)"/>
     </g>
    </g>
   </g>
   <g id="matplotlib.axis_2">
    <g id="ytick_1">
     <g id="line2d_19">
      <path d="M 43.78125 288.430125
L 501.34125 288.430125
" clip-path="url(#pbe98582702)" style="fill: none; stroke: #b0b0b0; stroke-opacity: 0.25; stroke-width: 0.8; stroke-linecap: square"/>
     </g>
     <g id="line2d_20">
      <defs>
       <path id="m390608d5e9" d="M 0 0
L -3.5 0
" style="stroke: #000000; stroke-width: 0.8"/>
      </defs>
      <g>
       <use xlink:href="#m390608d5e9" x="43.78125" y="288.430125" style="stroke: #000000; stroke-width: 0.8"/>
      </g>
     </g>
     <g id="text_11">
      <!-- 0.0 -->
      <g transform="translate(20.878125 292.229344) scale(0.1 -0.1)">
       <defs>
        <path id="DejaVuSans-2e" d="M 684 794
L 1344 794
L 1344 0
L 684 0
L 684 794
z
" transform="scale(0.015625)"/>
       </defs>
       <use xlink:href="#DejaVuSans-30"/>
       <use xlink:href="#DejaVuSans-2e" transform="translate(63.623047 0)"/>
       <use xlink:href="#DejaVuSans-30" transform="translate(95.410156 0)"/>
      </g>
     </g>
    </g>
    <g id="ytick_2">
     <g id="line2d_21">
      <path d="M 43.78125 239.150125
L 501.34125 239.150125
" clip-path="url(#pbe98582702)" style="fill: none; stroke: #b0b0b0; stroke-opacity: 0.25; stroke-width: 0.8; stroke-linecap: square"/>
     </g>
     <g id="line2d_22">
      <g>
       <use xlink:href="#m390608d5e9" x="43.78125" y="239.150125" style="stroke: #000000; stroke-width: 0.8"/>
      </g>
     </g>
     <g id="text_12">
      <!-- 0.2 -->
      <g transform="translate(20.878125 242.949344) scale(0.1 -0.1)">
       <use xlink:href="#DejaVuSans-30"/>
       <use xlink:href="#DejaVuSans-2e" transform="translate(63.623047 0)"/>
       <use xlink:href="#DejaVuSans-32" transform="translate(95.410156 0)"/>
      </g>
     </g>
    </g>
    <g id="ytick_3">
     <g id="line2d_23">
      <path d="M 43.78125 189.870125
L 501.34125 189.870125
" clip-path="url(#pbe98582702)" style="fill: none; stroke: #b0b0b0; stroke-opacity: 0.25; stroke-width: 0.8; stroke-linecap: square"/>
     </g>
     <g id="line2d_24">
      <g>
       <use xlink:href="#m390608d5e9" x="43.78125" y="189.870125" style="stroke: #000000; stroke-width: 0.8"/>
      </g>
     </g>
     <g id="text_13">
      <!-- 0.4 -->
      <g transform="translate(20.878125 193.669344) scale(0.1 -0.1)">
       <use xlink:href="#DejaVuSans-30"/>
       <use xlink:href="#DejaVuSans-2e" transform="translate(63.623047 0)"/>
       <use xlink:href="#DejaVuSans-34" transform="translate(95.410156 0)"/>
      </g>
     </g>
    </g>
    <g id="ytick_4">
     <g id="line2d_25">
      <path d="M 43.78125 140.590125
L 501.34125 140.590125
" clip-path="url(#pbe98582702)" style="fill: none; stroke: #b0b0b0; stroke-opacity: 0.25; stroke-width: 0.8; stroke-linecap: square"/>
     </g>
     <g id="line2d_26">
      <g>
       <use xlink:href="#m390608d5e9" x="43.78125" y="140.590125" style="stroke: #000000; stroke-width: 0.8"/>
      </g>
     </g>
     <g id="text_14">
      <!-- 0.6 -->
      <g transform="translate(20.878125 144.389344) scale(0.1 -0.1)">
       <use xlink:href="#DejaVuSans-30"/>
       <use xlink:href="#DejaVuSans-2e" transform="translate(63.623047 0)"/>
       <use xlink:href="#DejaVuSans-36" transform="translate(95.410156 0)"/>
      </g>
     </g>
    </g>
    <g id="ytick_5">
     <g id="line2d_27">
      <path d="M 43.78125 91.310125
L 501.34125 91.310125
" clip-path="url(#pbe98582702)" style="fill: none; stroke: #b0b0b0; stroke-opacity: 0.25; stroke-width: 0.8; stroke-linecap: square"/>
     </g>
     <g id="line2d_28">
      <g>
       <use xlink:href="#m390608d5e9" x="43.78125" y="91.310125" style="stroke: #000000; stroke-width: 0.8"/>
      </g>
     </g>
     <g id="text_15">
      <!-- 0.8 -->
      <g transform="translate(20.878125 95.109344) scale(0.1 -0.1)">
       <use xlink:href="#DejaVuSans-30"/>
       <use xlink:href="#DejaVuSans-2e" transform="translate(63.623047 0)"/>
       <use xlink:href="#DejaVuSans-38" transform="translate(95.410156 0)"/>
      </g>
     </g>
    </g>
    <g id="ytick_6">
     <g id="line2d_29">
      <path d="M 43.78125 42.030125
L 501.34125 42.030125
" clip-path="url(#pbe98582702)" style="fill: none; stroke: #b0b0b0; stroke-opacity: 0.25; stroke-width: 0.8; stroke-linecap: square"/>
     </g>
     <g id="line2d_30">
      <g>
       <use xlink:href="#m390608d5e9" x="43.78125" y="42.030125" style="stroke: #000000; stroke-width: 0.8"/>
      </g>
     </g>
     <g id="text_16">
      <!-- 1.0 -->
      <g transform="translate(20.878125 45.829344) scale(0.1 -0.1)">
       <defs>
        <path id="DejaVuSans-31" d="M 794 531
L 1825 531
L 1825 4091
L 703 3866
L 703 4441
L 1819 4666
L 2450 4666
L 2450 531
L 3481 531
L 3481 0
L 794 0
L 794 531
z
" transform="scale(0.015625)"/>
       </defs>
       <use xlink:href="#DejaVuSans-31"/>
       <use xlink:href="#DejaVuSans-2e" transform="translate(63.623047 0)"/>
       <use xlink:href="#DejaVuSans-30" transform="translate(95.410156 0)"/>
      </g>
     </g>
    </g>
    <g id="text_17">
     <!-- normalized far-field intensity -->
     <g transform="translate(14.798438 227.166312) rotate(-90) scale(0.1 -0.1)">
      <defs>
       <path id="DejaVuSans-7a" d="M 353 3500
L 3084 3500
L 3084 2975
L 922 459
L 3084 459
L 3084 0
L 275 0
L 275 525
L 2438 3041
L 353 3041
L 353 3500
z
" transform="scale(0.015625)"/>
       <path id="DejaVuSans-2d" d="M 313 2009
L 1997 2009
L 1997 1497
L 313 1497
L 313 2009
z
" transform="scale(0.015625)"/>
       <path id="DejaVuSans-74" d="M 1172 4494
L 1172 3500
L 2356 3500
L 2356 3053
L 1172 3053
L 1172 1153
Q 1172 725 1289 603
Q 1406 481 1766 481
L 2356 481
L 2356 0
L 1766 0
Q 1100 0 847 248
Q 594 497 594 1153
L 594 3053
L 172 3053
L 172 3500
L 594 3500
L 594 4494
L 1172 4494
z
" transform="scale(0.015625)"/>
       <path id="DejaVuSans-79" d="M 2059 -325
Q 1816 -950 1584 -1140
Q 1353 -1331 966 -1331
L 506 -1331
L 506 -850
L 844 -850
Q 1081 -850 1212 -737
Q 1344 -625 1503 -206
L 1606 56
L 191 3500
L 800 3500
L 1894 763
L 2988 3500
L 3597 3500
L 2059 -325
z
" transform="scale(0.015625)"/>
      </defs>
      <use xlink:href="#DejaVuSans-6e"/>
      <use xlink:href="#DejaVuSans-6f" transform="translate(63.378906 0)"/>
      <use xlink:href="#DejaVuSans-72" transform="translate(124.560547 0)"/>
      <use xlink:href="#DejaVuSans-6d" transform="translate(163.923828 0)"/>
      <use xlink:href="#DejaVuSans-61" transform="translate(261.335938 0)"/>
      <use xlink:href="#DejaVuSans-6c" transform="translate(322.615234 0)"/>
      <use xlink:href="#DejaVuSans-69" transform="translate(350.398438 0)"/>
      <use xlink:href="#DejaVuSans-7a" transform="translate(378.181641 0)"/>
      <use xlink:href="#DejaVuSans-65" transform="translate(430.671875 0)"/>
      <use xlink:href="#DejaVuSans-64" transform="translate(492.195312 0)"/>
      <use xlink:href="#DejaVuSans-20" transform="translate(555.671875 0)"/>
      <use xlink:href="#DejaVuSans-66" transform="translate(587.458984 0)"/>
      <use xlink:href="#DejaVuSans-61" transform="translate(622.664062 0)"/>
      <use xlink:href="#DejaVuSans-72" transform="translate(683.943359 0)"/>
      <use xlink:href="#DejaVuSans-2d" transform="translate(718.681641 0)"/>
      <use xlink:href="#DejaVuSans-66" transform="translate(754.765625 0)"/>
      <use xlink:href="#DejaVuSans-69" transform="translate(789.970703 0)"/>
      <use xlink:href="#DejaVuSans-65" transform="translate(817.753906 0)"/>
      <use xlink:href="#DejaVuSans-6c" transform="translate(879.277344 0)"/>
      <use xlink:href="#DejaVuSans-64" transform="translate(907.060547 0)"/>
      <use xlink:href="#DejaVuSans-20" transform="translate(970.537109 0)"/>
      <use xlink:href="#DejaVuSans-69" transform="translate(1002.324219 0)"/>
      <use xlink:href="#DejaVuSans-6e" transform="translate(1030.107422 0)"/>
      <use xlink:href="#DejaVuSans-74" transform="translate(1093.486328 0)"/>
      <use xlink:href="#DejaVuSans-65" transform="translate(1132.695312 0)"/>
      <use xlink:href="#DejaVuSans-6e" transform="translate(1194.21875 0)"/>
      <use xlink:href="#DejaVuSans-73" transform="translate(1257.597656 0)"/>
      <use xlink:href="#DejaVuSans-69" transform="translate(1309.697266 0)"/>
      <use xlink:href="#DejaVuSans-74" transform="translate(1337.480469 0)"/>
      <use xlink:href="#DejaVuSans-79" transform="translate(1376.689453 0)"/>
     </g>
    </g>
   </g>
   <g id="line2d_31">
    <path d="M 43.781252 288.350725
L 66.372896 288.238709
L 76.425087 288.335824
L 78.951583 288.089942
L 81.311456 287.602761
L 83.534402 286.876604
L 86.658353 285.528732
L 89.101881 284.527052
L 90.50859 284.153396
L 91.875551 284.035891
L 93.206066 284.210402
L 94.503005 284.671238
L 95.768886 285.367221
L 100.178023 288.161611
L 100.944863 288.377448
L 101.70207 288.422267
L 102.45002 288.279071
L 103.189063 287.941185
L 103.919527 287.41287
L 104.999812 286.299404
L 106.412913 284.372781
L 109.488156 279.912324
L 110.483807 278.954713
L 111.13997 278.574323
L 111.790256 278.4241
L 112.434833 278.511048
L 113.073862 278.829587
L 113.707494 279.361733
L 114.648143 280.493526
L 115.884768 282.402759
L 118.003354 285.746953
L 118.894597 286.809336
L 119.776321 287.530674
L 120.648858 287.906574
L 121.512518 287.987775
L 122.650764 287.797812
L 124.884065 287.321024
L 125.980305 287.358361
L 127.332549 287.657652
L 128.930033 287.989149
L 129.718917 287.961638
L 130.501469 287.730257
L 131.277864 287.279479
L 132.303762 286.383811
L 135.072996 283.661283
L 135.815671 283.313199
L 136.553209 283.271384
L 137.285733 283.547423
L 138.013361 284.1069
L 138.976116 285.158539
L 140.877159 287.347991
L 141.81593 288.036268
L 142.515056 288.292402
L 143.440795 288.338381
L 146.625798 288.075625
L 148.409558 288.273319
L 149.072045 288.088116
L 149.731133 287.591739
L 150.386888 286.701493
L 151.039374 285.376583
L 151.904373 282.960091
L 152.977815 279.161285
L 154.888934 272.159197
L 155.729931 269.927857
L 156.357396 268.891043
L 156.774171 268.547061
L 157.189733 268.492713
L 157.604097 268.726703
L 158.017276 269.237753
L 158.634852 270.476462
L 159.454264 272.840182
L 160.877456 277.996245
L 162.287371 282.8579
L 163.087268 284.950386
L 163.883079 286.386477
L 164.477308 287.03686
L 165.069322 287.367417
L 165.659156 287.445063
L 166.442267 287.289073
L 167.803757 286.712539
L 168.769458 286.09098
L 169.346229 285.439268
L 169.921049 284.338544
L 170.493946 282.506742
L 171.064949 279.599908
L 171.634083 275.23273
L 172.201378 269.008253
L 172.766857 260.555866
L 173.518052 245.3181
L 174.266127 225.237622
L 175.19692 193.695353
L 176.676511 133.734214
L 177.961675 83.413575
L 178.692197 61.308385
L 179.238285 49.751193
L 179.601496 44.850456
L 179.964037 42.354329
L 180.145057 42.030125
L 180.325913 42.324818
L 180.506603 43.235112
L 180.867493 46.867575
L 181.40761 56.606767
L 181.946284 70.913109
L 182.840915 102.456191
L 186.205884 232.845346
L 187.082659 254.27537
L 187.781557 266.017033
L 188.304285 271.932595
L 188.825791 275.699
L 189.34609 277.682928
L 189.692292 278.21251
L 190.037969 278.248969
L 190.383125 277.911272
L 190.899891 276.94952
L 192.443352 273.69624
L 192.955607 273.20971
L 193.296501 273.146705
L 193.636913 273.297371
L 194.146636 273.89949
L 194.824615 275.278148
L 196.00662 278.503276
L 197.183087 281.50409
L 198.020114 282.993655
L 198.687795 283.747503
L 199.353778 284.198536
L 201.836556 285.476322
L 202.823395 286.495351
L 204.297193 288.048329
L 204.949788 288.361032
L 205.438274 288.333741
L 205.925947 288.065437
L 206.574932 287.374522
L 207.868708 285.447971
L 208.674542 284.469276
L 209.157038 284.133979
L 209.638792 284.022022
L 210.119813 284.122465
L 210.760047 284.51522
L 213.149784 286.330502
L 213.942574 286.500445
L 214.891507 286.446172
L 216.781699 286.266483
L 218.349329 286.438422
L 219.286741 286.43071
L 219.910399 286.20565
L 220.533048 285.699637
L 221.154705 284.845936
L 221.775387 283.619791
L 222.704613 281.170098
L 224.864701 275.02592
L 225.479852 273.981533
L 225.940644 273.570091
L 226.400953 273.496942
L 226.860786 273.750652
L 227.320148 274.295784
L 227.931909 275.381613
L 229.000545 277.837347
L 230.674985 281.675701
L 231.88918 283.854967
L 233.251692 285.785983
L 234.610688 287.368524
L 235.364219 287.970351
L 235.96631 288.151961
L 236.41746 288.034149
L 236.868255 287.648474
L 237.318702 286.965998
L 237.918764 285.587593
L 238.668001 283.212733
L 241.208719 274.442936
L 241.8051 273.383162
L 242.252041 273.002532
L 242.549841 272.947796
L 242.996303 273.149806
L 243.442483 273.659778
L 244.03696 274.729256
L 244.927777 276.863727
L 246.706313 281.213971
L 247.446206 282.508695
L 248.185444 283.356129
L 248.776378 283.706571
L 249.366917 283.775229
L 249.957071 283.564561
L 250.546852 283.05632
L 251.136269 282.204863
L 251.725333 280.943753
L 252.461182 278.696388
L 253.196514 275.680862
L 254.518876 269.045292
L 255.399614 265.020693
L 255.986421 263.184188
L 256.426348 262.451323
L 256.71955 262.30923
L 257.012688 262.453316
L 257.305763 262.87972
L 257.745259 264.016144
L 258.331044 266.320625
L 259.209292 270.87527
L 260.964361 280.17125
L 261.841247 283.526711
L 262.571686 285.458203
L 263.155856 286.497772
L 263.739874 287.174976
L 264.469699 287.648007
L 265.19932 287.847443
L 266.074622 287.852813
L 266.803861 287.664782
L 267.387147 287.328582
L 267.97035 286.752483
L 268.553479 285.871502
L 269.282302 284.304128
L 270.302519 281.462332
L 271.322626 278.71008
L 271.905513 277.656994
L 272.342672 277.266908
L 272.634109 277.222718
L 272.925547 277.354776
L 273.362707 277.867884
L 273.945599 279.050392
L 274.965718 281.890277
L 276.131717 284.991287
L 276.860577 286.353125
L 277.589545 287.209902
L 278.318639 287.664783
L 279.047878 287.852814
L 279.92318 287.847444
L 280.652801 287.648008
L 281.236644 287.298248
L 281.820625 286.697538
L 282.404756 285.756853
L 282.989046 284.390642
L 283.719646 281.991685
L 284.596738 278.087653
L 286.059548 270.062754
L 287.084319 265.06914
L 287.670223 263.19487
L 288.109812 262.453326
L 288.40295 262.30924
L 288.696152 262.451332
L 288.98942 262.873166
L 289.429448 263.991712
L 290.016394 266.234269
L 291.04424 271.314605
L 292.367124 277.578131
L 293.102764 280.138469
L 293.838932 281.930786
L 294.42826 282.877994
L 295.017949 283.466711
L 295.608009 283.749022
L 296.198451 283.749823
L 296.789285 283.470693
L 297.380522 282.902726
L 297.972172 282.042385
L 298.712332 280.58337
L 299.898018 277.638102
L 301.234114 274.426828
L 301.828713 273.458451
L 302.274986 273.046138
L 302.721543 272.955573
L 303.019407 273.089289
L 303.466446 273.590069
L 303.913781 274.44294
L 304.510695 276.069374
L 305.407095 279.247288
L 307.053815 285.164538
L 307.803798 286.965999
L 308.404471 287.80899
L 308.855384 288.101226
L 309.306652 288.139107
L 309.758281 287.97035
L 310.361024 287.512708
L 311.417425 286.354752
L 312.930228 284.321083
L 313.991846 282.558327
L 315.055731 280.372236
L 317.802352 274.29578
L 318.414939 273.631509
L 318.87493 273.483905
L 319.181856 273.57009
L 319.642648 273.981534
L 320.103929 274.715871
L 320.719742 276.122309
L 321.799576 279.290914
L 323.192094 283.257452
L 323.967795 284.845938
L 324.589452 285.699639
L 325.212101 286.205652
L 325.835759 286.430711
L 326.616773 286.453687
L 329.127159 286.294596
L 331.49682 286.462803
L 332.290354 286.186375
L 333.085772 285.638459
L 335.002687 284.122467
L 335.483708 284.022024
L 335.965462 284.13398
L 336.447958 284.469277
L 337.092456 285.219774
L 339.196553 288.065436
L 339.684226 288.333741
L 340.172712 288.361032
L 340.66202 288.159732
L 341.315725 287.610544
L 343.945799 284.996098
L 344.938588 284.542825
L 346.101503 284.003198
L 346.768332 283.415321
L 347.43687 282.473805
L 348.107147 281.131945
L 349.11588 278.503281
L 350.63664 274.519246
L 351.145653 273.651812
L 351.655733 273.195688
L 351.996386 273.151338
L 352.337523 273.321161
L 352.850145 273.954099
L 353.535372 275.342887
L 354.739375 277.911275
L 355.084531 278.248972
L 355.430208 278.212514
L 355.77641 277.682933
L 356.123143 276.539011
L 356.470409 274.660672
L 356.992321 270.216116
L 357.51546 263.512771
L 358.214914 250.600024
L 358.916616 232.845355
L 359.796961 204.059593
L 361.03559 154.478985
L 362.817894 82.563756
L 363.535172 60.906994
L 364.074806 49.561795
L 364.43537 44.753347
L 364.796587 42.324825
L 364.977443 42.030132
L 365.158463 42.354336
L 365.33965 43.296304
L 365.702525 47.006849
L 366.248104 56.926194
L 366.795218 71.514962
L 367.710546 103.750864
L 370.856373 225.237634
L 371.791952 249.57565
L 372.543936 263.641369
L 373.299115 273.383525
L 373.867634 278.326143
L 374.43801 281.675673
L 375.010273 283.825046
L 375.584449 285.134745
L 376.160566 285.909168
L 376.931794 286.502628
L 378.290085 287.147842
L 379.267212 287.428133
L 379.856326 287.417652
L 380.447609 287.179647
L 381.041096 286.642103
L 381.636821 285.752288
L 382.23482 284.486788
L 383.035751 282.241818
L 384.245044 277.996241
L 385.872662 272.187368
L 386.693217 270.005264
L 387.311667 268.948676
L 387.725436 268.574145
L 388.140398 268.48353
L 388.556564 268.683172
L 388.97395 269.169268
L 389.602346 270.402323
L 390.444609 272.840084
L 391.717683 277.523476
L 393.218127 282.960105
L 394.083126 285.376594
L 394.735612 286.701501
L 395.391367 287.591745
L 396.050455 288.088119
L 396.712942 288.27332
L 397.601659 288.224428
L 399.398241 288.017014
L 400.534574 288.150536
L 402.143667 288.350674
L 402.840021 288.231073
L 403.540548 287.901217
L 404.245341 287.34799
L 405.191867 286.325874
L 407.109139 284.106897
L 407.836767 283.54742
L 408.569291 283.27138
L 409.306829 283.313196
L 410.049504 283.66128
L 410.797446 284.261327
L 412.309669 285.852185
L 413.587177 287.083452
L 414.361556 287.604015
L 415.142038 287.908717
L 415.928791 288.000145
L 416.98786 287.863094
L 419.688672 287.310964
L 420.791551 287.388176
L 424.184784 287.962536
L 425.054328 287.692879
L 425.932954 287.08913
L 426.820987 286.136209
L 428.020257 284.408006
L 430.786623 280.078111
L 431.731157 279.070544
L 432.367468 278.64221
L 433.009252 278.43798
L 433.656663 278.469712
L 434.309866 278.736668
L 434.969033 279.225724
L 435.969362 280.319296
L 437.325767 282.249039
L 439.766558 285.855984
L 440.84086 287.081637
L 441.933437 287.941187
L 442.67248 288.279072
L 443.42043 288.422267
L 444.177637 288.377447
L 444.944477 288.16161
L 446.113676 287.576306
L 448.116574 286.205438
L 449.772266 285.114072
L 451.048239 284.488047
L 452.356075 284.119212
L 453.698399 284.043611
L 455.078219 284.252289
L 456.498999 284.697572
L 458.96924 285.757611
L 462.132296 287.077695
L 464.387176 287.74823
L 466.785534 288.172707
L 469.359644 288.364953
L 472.897362 288.375318
L 485.37456 288.200438
L 501.341248 288.350726
L 501.341248 288.350726
" clip-path="url(#pbe98582702)" style="fill: none; stroke: #d62728; stroke-width: 1.5; stroke-linecap: square"/>
   </g>
   <g id="line2d_32">
    <path d="M 43.781252 278.053999
L 50.296904 274.685839
L 55.068577 271.676343
L 58.35556 269.321475
L 61.028688 267.170262
L 63.341277 265.025121
L 65.409293 262.744035
L 67.29735 260.218208
L 69.045828 257.37326
L 70.681959 254.172727
L 72.225138 250.617877
L 73.689759 246.7421
L 75.762856 240.449396
L 77.711432 233.76412
L 80.150266 224.479673
L 82.438534 214.810633
L 84.601575 204.662889
L 89.575425 180.096013
L 90.50859 176.499453
L 91.424101 173.730294
L 92.322956 171.861435
L 92.766425 171.261031
L 93.206066 170.867557
L 93.641979 170.660167
L 94.074261 170.610947
L 94.928301 170.843072
L 96.184335 171.346329
L 96.596658 171.355376
L 97.005926 171.200037
L 97.412211 170.832446
L 97.81558 170.209229
L 98.216096 169.293112
L 99.008824 166.472109
L 99.790868 162.242931
L 100.562671 156.643868
L 101.70207 146.174717
L 104.641723 116.789992
L 105.355942 111.831287
L 106.06246 108.578243
L 106.412913 107.638487
L 106.761537 107.161045
L 107.108362 107.136754
L 107.453418 107.547236
L 107.796733 108.365896
L 108.478253 111.087762
L 109.153138 114.975429
L 110.153467 122.188674
L 113.073862 144.362366
L 114.335877 151.855283
L 115.268911 156.253056
L 116.190893 159.510966
L 116.799616 160.973773
L 117.403732 161.820486
L 117.704098 162.00906
L 118.003354 162.046061
L 118.301513 161.941005
L 118.894597 161.370467
L 120.648858 159.007923
L 120.937716 158.972672
L 121.225599 159.172687
L 121.512518 159.656352
L 121.798483 160.467799
L 122.367596 163.218188
L 122.933019 167.623859
L 123.494832 173.71386
L 124.330949 185.58461
L 126.794003 224.632549
L 127.332549 229.966243
L 127.86803 233.065529
L 128.13464 233.737103
L 128.400506 233.833254
L 128.665635 233.380877
L 128.930033 232.421451
L 129.456668 229.211601
L 130.241311 222.284097
L 131.535323 210.69747
L 132.048266 207.773021
L 132.558615 206.372441
L 132.812831 206.276701
L 133.066416 206.574431
L 133.319374 207.242497
L 133.823435 209.541586
L 134.574961 214.621489
L 135.815671 223.307518
L 136.307926 225.495146
L 136.553209 226.134643
L 136.797935 226.433
L 137.042108 226.370926
L 137.285733 225.936313
L 137.771355 223.933637
L 138.254836 220.448255
L 138.976116 212.656928
L 139.692762 202.237674
L 140.877159 180.746888
L 142.978833 141.089348
L 143.671103 132.42523
L 144.13039 129.108917
L 144.359375 128.296407
L 144.587926 128.073454
L 144.816044 128.444443
L 145.043734 129.400331
L 145.497838 132.958934
L 146.175852 141.627814
L 147.743607 164.774563
L 148.187963 168.235366
L 148.409558 168.95244
L 148.630769 168.906893
L 148.851597 168.055704
L 149.292115 163.864421
L 149.731133 156.444866
L 150.386888 140.215918
L 152.549465 78.052554
L 152.977815 71.2881
L 153.404817 67.880723
L 153.617817 67.473197
L 153.830486 67.912168
L 154.042826 69.162694
L 154.466527 73.88319
L 155.099658 85.401437
L 156.357396 115.573321
L 157.397064 137.847636
L 158.017276 147.415632
L 158.634852 153.871979
L 159.045128 156.605249
L 159.454264 158.259101
L 159.862275 158.997611
L 160.065862 159.072604
L 160.269172 158.97564
L 160.674967 158.3329
L 161.079673 157.198054
L 161.885864 153.980289
L 162.88768 149.898273
L 163.2866 148.938245
L 163.485679 148.728224
L 163.684505 148.741072
L 163.883079 149.00755
L 164.27948 150.413038
L 164.674891 153.133442
L 165.069322 157.28495
L 165.659156 166.216849
L 166.442267 182.44988
L 168.576762 230.494011
L 169.15419 237.566488
L 169.538051 239.728137
L 169.729658 239.99722
L 169.921049 239.724164
L 170.112227 238.918891
L 170.493946 235.793257
L 171.064949 227.827411
L 172.012482 209.212239
L 173.142848 187.65412
L 173.705361 180.703353
L 174.079397 178.104029
L 174.266127 177.444778
L 174.452665 177.206228
L 174.639012 177.373675
L 174.82517 177.925011
L 175.19692 180.058184
L 175.753146 185.245958
L 177.59537 204.911295
L 177.961675 206.935801
L 178.327282 207.873877
L 178.509826 207.910678
L 178.692197 207.651792
L 179.056425 206.237196
L 179.419975 203.625455
L 179.964037 197.494236
L 180.506603 188.799
L 181.227733 173.587977
L 182.483532 140.676776
L 183.375829 118.659235
L 183.909367 109.330923
L 184.264303 105.619863
L 184.61864 104.281284
L 184.795586 104.562067
L 184.972384 105.490608
L 185.325539 109.27688
L 185.854179 119.478389
L 186.557018 139.812965
L 189.17279 224.52978
L 189.865196 237.971605
L 190.555509 246.862491
L 191.07189 251.096374
L 191.587128 253.697623
L 192.101235 255.036609
L 192.443352 255.397445
L 192.784977 255.449449
L 193.296501 255.172187
L 194.146636 254.614328
L 194.48586 254.624667
L 194.824615 254.868021
L 195.162905 255.375537
L 195.669476 256.626399
L 196.343312 258.995533
L 197.68563 263.943572
L 198.187195 265.110339
L 198.521035 265.538371
L 198.854448 265.653896
L 199.18744 265.440914
L 199.520012 264.892511
L 200.018092 263.448238
L 200.680761 260.461607
L 201.671741 254.483849
L 202.823395 247.823931
L 203.479361 245.225618
L 204.949788 240.512246
L 205.438274 237.640448
L 205.925947 233.484992
L 206.736958 224.168414
L 207.545781 214.895362
L 208.030044 211.524972
L 208.352461 210.873918
L 208.513544 211.116553
L 208.835457 212.8204
L 209.157038 216.166589
L 209.638792 224.025417
L 210.44009 242.364078
L 211.558558 268.582159
L 212.195964 278.694391
L 212.673215 282.940461
L 212.991003 284.223066
L 213.149784 284.443414
L 213.30849 284.409946
L 213.62568 283.673131
L 214.100911 281.251239
L 214.733532 276.489794
L 216.152751 263.606215
L 217.723079 247.653209
L 219.442751 229.805998
L 219.910399 226.751661
L 220.221848 225.657084
L 220.377479 225.447909
L 220.533048 225.484581
L 220.688555 225.779078
L 220.999383 227.172721
L 221.309967 229.652288
L 221.775387 235.290949
L 222.54989 248.514541
L 223.940312 273.410433
L 224.556795 280.777522
L 225.018571 284.327842
L 225.479852 286.448932
L 225.940644 287.493583
L 226.24757 287.727893
L 226.554283 287.62305
L 226.860786 287.139704
L 227.167079 286.18065
L 227.473165 284.602698
L 227.931909 280.706657
L 228.390196 274.507704
L 229.000545 262.165982
L 229.762376 240.860008
L 231.585907 185.646596
L 232.192272 173.712124
L 232.646574 168.076569
L 233.100479 165.247654
L 233.402863 164.823951
L 233.55399 165.022729
L 233.856116 166.193182
L 234.308985 169.744945
L 234.761476 175.257945
L 235.364219 185.324696
L 236.116733 201.596151
L 237.318702 233.129036
L 238.668001 268.062663
L 239.266733 279.532381
L 239.715405 285.081496
L 240.014344 286.981454
L 240.163761 287.338658
L 240.313143 287.284861
L 240.462491 286.813295
L 240.761084 284.61289
L 241.208719 278.285393
L 241.8051 265.04914
L 242.996303 230.668041
L 243.888386 207.454485
L 244.630956 193.330967
L 245.372792 183.544018
L 246.113914 176.789956
L 246.706313 173.228446
L 247.150328 171.834003
L 247.446206 171.642474
L 247.594105 171.791312
L 247.889826 172.600748
L 248.333215 175.089022
L 248.924049 180.477391
L 250.988948 202.202635
L 251.430844 204.183469
L 251.725333 204.64355
L 251.872545 204.610791
L 252.166905 204.030093
L 252.461182 202.798141
L 252.902442 199.892359
L 253.784422 191.898277
L 254.372023 187.06963
L 254.812528 185.080554
L 254.959326 184.889075
L 255.106106 184.977013
L 255.252869 185.366016
L 255.546342 187.114016
L 255.986421 192.288579
L 256.426348 200.449817
L 257.159233 219.25535
L 258.916598 267.664584
L 259.501932 278.344154
L 260.087053 285.121835
L 260.525762 287.746917
L 260.818173 288.397436
L 260.964361 288.405558
L 261.110537 288.206608
L 261.402854 287.196739
L 261.841247 284.172077
L 262.279542 279.346605
L 262.863791 270.106167
L 263.593884 253.993392
L 264.323751 232.606584
L 265.19932 199.500529
L 266.220482 151.475568
L 267.824556 75.249909
L 268.407703 56.353565
L 268.845019 47.296368
L 269.282302 42.753417
L 269.573807 42.030212
L 269.719554 42.275792
L 270.011042 43.795755
L 270.448254 48.005776
L 271.905513 64.643791
L 272.342672 66.828442
L 272.488391 67.077833
L 272.634109 67.07783
L 272.779828 66.828434
L 273.071267 65.601428
L 273.508428 62.119673
L 274.237052 53.444766
L 274.965718 44.986356
L 275.402946 42.275707
L 275.548693 42.030125
L 275.694444 42.178271
L 275.840198 42.753327
L 276.131717 45.292326
L 276.569021 52.826192
L 277.006361 64.885533
L 277.589545 87.202265
L 278.610316 136.666344
L 280.069089 205.59068
L 280.944706 237.323373
L 281.820625 261.054546
L 282.550814 275.128333
L 283.135144 282.763597
L 283.573504 286.38898
L 284.011963 288.206609
L 284.158139 288.405559
L 284.304327 288.397435
L 284.450527 288.179132
L 284.742962 287.096489
L 285.035447 285.12183
L 285.474269 280.402308
L 286.059548 270.695967
L 286.791456 253.379975
L 288.98942 194.692039
L 289.429448 188.495066
L 289.869631 185.366029
L 290.163174 184.889092
L 290.309972 185.080573
L 290.603624 186.199432
L 291.04424 189.277692
L 292.661318 202.798177
L 293.102764 204.405036
L 293.397167 204.643589
L 293.544401 204.501237
L 293.838932 203.691952
L 294.280895 201.217272
L 294.870492 195.902881
L 296.937056 174.094808
L 297.380522 172.109995
L 297.676294 171.642496
L 297.82422 171.658887
L 298.12015 172.159968
L 298.416187 173.228458
L 298.860445 175.739726
L 299.453175 180.533968
L 300.046356 187.027333
L 300.639998 195.768305
L 301.234114 207.454463
L 301.97744 226.414069
L 303.764636 275.435762
L 304.212171 282.894425
L 304.660009 286.813292
L 304.809357 287.28486
L 304.958739 287.338659
L 305.108156 286.981457
L 305.407095 285.081503
L 305.855767 279.532393
L 306.454499 268.062682
L 307.353695 245.462129
L 309.306652 194.655705
L 310.05957 179.926673
L 310.662642 171.374672
L 311.115385 167.146298
L 311.417425 165.482324
L 311.719637 164.823972
L 311.870808 164.8957
L 312.022021 165.247672
L 312.32458 166.829699
L 312.627315 169.636548
L 313.081752 176.229705
L 313.688298 189.369942
L 314.447515 211.409308
L 316.121955 262.165983
L 316.732304 274.507707
L 317.343455 282.237486
L 317.802352 285.479265
L 318.261714 287.139706
L 318.568217 287.623052
L 318.87493 287.727895
L 319.181856 287.493585
L 319.488997 286.900362
L 319.796354 285.878739
L 320.257799 283.319739
L 320.719742 279.225626
L 321.336449 271.099412
L 322.263222 254.459782
L 323.347113 235.290969
L 323.967795 228.277905
L 324.2785 226.340138
L 324.589452 225.484604
L 324.745021 225.447932
L 324.900652 225.657106
L 325.212101 226.751683
L 325.679749 229.806019
L 326.460441 237.315362
L 329.127159 265.093664
L 330.705133 279.024569
L 331.338336 283.017631
L 331.655378 284.145281
L 331.81401 284.409948
L 331.972716 284.443416
L 332.131497 284.223068
L 332.449285 282.940461
L 332.767376 280.431877
L 333.245085 274.250801
L 333.883111 261.856552
L 335.965462 216.166558
L 336.447958 211.762422
L 336.770039 210.873886
L 336.931205 211.017951
L 337.253792 212.364667
L 337.73831 216.503061
L 339.846964 238.73248
L 340.335723 241.226673
L 340.988686 243.343337
L 341.806988 245.785094
L 342.463336 248.631526
L 343.285944 253.434308
L 344.607253 261.309572
L 345.270332 264.010741
L 345.768722 265.208734
L 346.101503 265.589106
L 346.434705 265.636421
L 346.768332 265.362029
L 347.102386 264.786939
L 347.604275 263.434968
L 348.442945 260.327202
L 349.453024 256.626389
L 349.959595 255.375527
L 350.467204 254.714574
L 350.806193 254.593433
L 351.145653 254.679186
L 352.508274 255.455733
L 352.850145 255.261914
L 353.192509 254.709107
L 353.535372 253.697627
L 354.05061 251.096379
L 354.566991 246.862497
L 355.084531 240.588398
L 355.603243 231.866252
L 356.296709 215.923161
L 357.166563 189.259962
L 359.268321 119.478402
L 359.796961 109.276892
L 360.150116 105.490619
L 360.326914 104.562077
L 360.50386 104.281293
L 360.680954 104.6398
L 361.03559 107.195053
L 361.390827 111.986017
L 361.924822 122.569304
L 362.996976 150.40791
L 364.255007 181.669638
L 364.977443 194.873614
L 365.521004 201.874084
L 366.066075 206.23718
L 366.430303 207.651774
L 366.612674 207.91066
L 366.795218 207.873858
L 366.977934 207.546369
L 367.343889 206.052718
L 367.894139 201.928932
L 368.630298 193.930602
L 369.739986 181.565661
L 370.29733 177.924979
L 370.483488 177.373645
L 370.669835 177.206198
L 370.856373 177.44475
L 371.043103 178.104003
L 371.417139 180.70333
L 371.791952 184.957658
L 372.355643 194.013019
L 374.628554 235.793249
L 375.010273 238.918881
L 375.201451 239.724153
L 375.392842 239.997208
L 375.584449 239.728123
L 375.776271 238.91551
L 376.160566 235.696399
L 376.738655 227.230121
L 377.512556 210.831774
L 379.463344 166.21683
L 380.053178 157.284936
L 380.645192 151.59963
L 381.041096 149.556302
L 381.437995 148.741067
L 381.636821 148.72822
L 381.8359 148.938242
L 382.23482 149.898272
L 382.835129 152.207951
L 384.042827 157.198075
L 384.650294 158.723705
L 385.056638 159.07265
L 385.260225 158.997663
L 385.46409 158.732814
L 385.872662 157.55685
L 386.282367 155.383846
L 386.693217 152.050886
L 387.311667 144.578705
L 387.932767 133.967229
L 388.765104 115.573422
L 390.444609 77.214195
L 390.867661 71.174341
L 391.292014 67.91215
L 391.504683 67.473168
L 391.717683 67.880686
L 391.931016 69.1525
L 392.358691 74.267683
L 392.787722 82.584678
L 393.43385 99.827971
L 395.391367 156.444858
L 395.830385 163.864426
L 396.270903 168.055719
L 396.491731 168.906912
L 396.712942 168.952462
L 396.934537 168.23539
L 397.378893 164.774587
L 398.048379 155.865689
L 399.398241 135.471013
L 399.851502 130.917787
L 400.306456 128.444396
L 400.534574 128.073401
L 400.763125 128.29635
L 400.99211 129.108855
L 401.451397 132.425161
L 401.912461 137.769462
L 402.607444 148.758956
L 404.009931 176.08305
L 405.429738 202.237646
L 406.38629 215.573317
L 407.109139 222.371789
L 407.593686 225.123707
L 408.080392 226.370924
L 408.324565 226.432998
L 408.569291 226.134641
L 408.814574 225.495144
L 409.306829 223.307514
L 410.049504 218.377476
L 411.299065 209.541564
L 411.803126 207.242469
L 412.056084 206.5744
L 412.309669 206.276668
L 412.563885 206.372405
L 412.818738 206.872141
L 413.330379 209.058222
L 413.844636 212.646979
L 414.881189 222.284055
L 415.665832 229.211565
L 416.192467 232.42142
L 416.456865 233.380849
L 416.721994 233.833229
L 416.98786 233.737081
L 417.25447 233.06551
L 417.521831 231.80709
L 418.058838 227.563019
L 418.598938 221.223701
L 419.415027 208.786672
L 421.348091 177.345841
L 422.189481 167.623853
L 422.754904 163.218182
L 423.324017 160.467794
L 423.896901 159.172684
L 424.184784 158.97267
L 424.473642 159.007924
L 425.054328 159.580724
L 426.52391 161.708879
L 427.119146 162.04609
L 427.418402 162.009092
L 427.718768 161.820522
L 428.322884 160.973814
L 428.931607 159.51101
L 429.545055 157.472562
L 430.474357 153.440694
L 431.415006 148.336969
L 432.687667 139.946801
L 434.309866 127.405526
L 435.969362 114.975454
L 436.644247 111.087788
L 437.325767 108.365921
L 437.669082 107.547262
L 438.014138 107.13678
L 438.360963 107.161072
L 438.709587 107.638515
L 439.06004 108.578271
L 439.766558 111.831316
L 440.480777 116.790021
L 441.567153 126.756077
L 444.559829 156.6439
L 445.331632 162.242964
L 446.113676 166.472141
L 446.906404 169.293143
L 447.30692 170.20926
L 447.710289 170.832475
L 448.116574 171.200065
L 448.525842 171.355404
L 448.938165 171.346355
L 449.772266 171.038786
L 450.619495 170.6854
L 451.048239 170.610967
L 451.480521 170.660185
L 451.916434 170.867573
L 452.356075 171.261046
L 452.799544 171.861448
L 453.698399 173.730306
L 454.61391 176.499463
L 455.547075 180.096022
L 456.982372 186.712925
L 462.683966 214.81065
L 464.972234 224.479691
L 467.411068 233.764137
L 469.359644 240.449411
L 471.432741 246.742111
L 472.897362 250.617887
L 474.440541 254.172734
L 476.076672 257.373266
L 477.82515 260.218213
L 479.713207 262.744039
L 481.781223 265.025124
L 484.093812 267.170264
L 486.76694 269.321476
L 490.053923 271.676344
L 494.825596 274.685838
L 501.341248 278.053998
L 501.341248 278.053998
" clip-path="url(#pbe98582702)" style="fill: none; stroke: #2ca02c; stroke-width: 1.5; stroke-linecap: square"/>
   </g>
   <g id="line2d_33">
    <path d="M 43.781252 283.151766
L 50.296904 281.4122
L 55.068577 279.85761
L 59.74794 278.096703
L 63.341277 276.484775
L 65.409293 275.355215
L 67.29735 274.112699
L 69.045828 272.715861
L 70.681959 271.140993
L 72.225138 269.382087
L 73.689759 267.448272
L 75.762856 264.263174
L 77.711432 260.804052
L 79.555844 257.122408
L 81.311456 253.22639
L 83.534402 247.669851
L 85.642248 241.759156
L 89.101881 231.905449
L 90.044281 229.696372
L 90.968488 227.954584
L 91.875551 226.749542
L 92.766425 226.101658
L 93.206066 225.976664
L 94.074261 226.069222
L 94.928301 226.499357
L 96.596658 227.583843
L 97.412211 227.782442
L 97.81558 227.698511
L 98.216096 227.460954
L 98.613824 227.050704
L 99.401153 225.658839
L 100.178023 223.469064
L 100.944863 220.517069
L 102.07718 214.952188
L 104.999812 199.118313
L 105.710147 196.310675
L 106.412913 194.32751
L 107.108362 193.228659
L 107.453418 193.00868
L 107.796733 192.998567
L 108.138336 193.186471
L 108.478253 193.557662
L 109.153138 194.780757
L 109.821591 196.518951
L 110.812634 199.765291
L 113.073862 208.361898
L 115.268911 216.397733
L 116.495838 220.042194
L 117.403732 221.962883
L 118.003354 222.769023
L 118.59859 223.193333
L 119.189546 223.290463
L 120.068172 223.082602
L 120.648858 222.965225
L 121.225599 223.113363
L 121.512518 223.355913
L 122.083506 224.302972
L 122.650764 225.994515
L 123.214372 228.516765
L 124.053111 233.807427
L 125.159361 242.813754
L 126.523562 253.874445
L 127.332549 258.430021
L 127.86803 260.100787
L 128.13464 260.489165
L 128.400506 260.581244
L 128.665635 260.388155
L 128.930033 259.928501
L 129.456668 258.317207
L 130.241311 254.707944
L 131.535323 248.287449
L 132.048266 246.458311
L 132.558615 245.346858
L 132.812831 245.083159
L 133.066416 245.013143
L 133.319374 245.128245
L 133.823435 245.852113
L 134.325054 247.08732
L 136.307926 252.665705
L 136.797935 253.200272
L 137.042108 253.242835
L 137.285733 253.125044
L 137.771355 252.394116
L 138.254836 251.002581
L 138.73621 248.975243
L 139.454388 244.84184
L 140.404879 237.615013
L 141.81593 224.574949
L 142.978833 214.313757
L 143.671103 209.928865
L 144.13039 208.20198
L 144.359375 207.758957
L 144.587926 207.612323
L 144.816044 207.766429
L 145.043734 208.218627
L 145.497838 209.969056
L 146.175852 214.326774
L 147.743607 226.142003
L 148.187963 227.904263
L 148.409558 228.25593
L 148.630769 228.206284
L 148.851597 227.730311
L 149.292115 225.450327
L 149.731133 221.425834
L 150.386888 212.558894
L 151.68865 189.807493
L 152.549465 176.570174
L 153.191484 170.17505
L 153.617817 168.020818
L 153.830486 167.592697
L 154.042826 167.583544
L 154.254839 167.973131
L 154.677891 169.834411
L 155.310064 174.778248
L 156.357396 185.962666
L 157.604097 198.806068
L 158.429283 205.185154
L 159.249838 209.693546
L 159.862275 212.053186
L 160.472206 213.701352
L 161.079673 214.748722
L 161.684715 215.301763
L 162.287371 215.519247
L 163.087268 215.746967
L 163.485679 216.079781
L 163.883079 216.726187
L 164.27948 217.809083
L 164.674891 219.432716
L 165.266174 223.027793
L 165.855288 228.041109
L 166.832415 238.833781
L 168.190706 254.299144
L 168.769458 258.869912
L 169.15419 260.683491
L 169.346229 261.157853
L 169.538051 261.323289
L 169.729658 261.168565
L 169.921049 260.686006
L 170.303193 258.724774
L 170.68449 255.449975
L 171.254866 248.228163
L 172.012482 234.958009
L 173.142848 209.934274
L 175.382514 153.518793
L 179.056425 59.322688
L 179.78285 48.307528
L 180.325913 43.583835
L 180.68713 42.198359
L 180.867493 42.030126
L 181.047694 42.204574
L 181.40761 43.552046
L 181.766885 46.174469
L 182.304606 52.348985
L 182.840915 61.042085
L 183.553827 76.334691
L 184.441546 101.069875
L 185.501897 137.514108
L 187.60704 212.562667
L 188.478256 235.054418
L 189.17279 247.349797
L 189.692292 253.45801
L 190.210612 257.336403
L 190.727764 259.480867
L 191.07189 260.194863
L 191.415508 260.49654
L 191.758622 260.507642
L 192.272355 260.209483
L 193.296501 259.52017
L 193.636913 259.504401
L 193.976847 259.675414
L 194.316307 260.061647
L 194.824615 261.067975
L 195.500734 263.140148
L 196.84751 268.502781
L 197.68563 271.370722
L 198.354168 272.83487
L 198.854448 273.355491
L 199.18744 273.426658
L 199.520012 273.288161
L 200.018092 272.723402
L 200.680761 271.429822
L 202.823395 266.477835
L 203.479361 265.779766
L 204.623675 264.873987
L 204.949788 264.291633
L 205.438274 262.826501
L 205.925947 260.523903
L 206.574932 256.298444
L 207.707288 248.582365
L 208.191295 246.790322
L 208.352461 246.559807
L 208.513544 246.538659
L 208.674542 246.736856
L 208.996289 247.809871
L 209.317705 249.77136
L 209.799214 254.191156
L 210.600108 264.077899
L 211.718025 277.504039
L 212.355124 282.380896
L 212.832146 284.276635
L 213.149784 284.75113
L 213.30849 284.77819
L 213.62568 284.469553
L 213.942574 283.760523
L 214.575485 281.528345
L 215.837862 275.752424
L 217.879741 265.433294
L 219.442751 257.342886
L 220.066155 255.249566
L 220.377479 254.722148
L 220.688555 254.620438
L 220.999383 254.980624
L 221.309967 255.811878
L 221.775387 257.884395
L 222.395108 261.823819
L 223.786051 271.294587
L 224.402758 273.983574
L 224.864701 275.166457
L 225.326146 275.787197
L 225.7871 276.057371
L 226.400953 276.157492
L 226.860786 276.068825
L 227.167079 275.853351
L 227.473165 275.418264
L 227.779045 274.664652
L 228.237484 272.723211
L 228.69547 269.586225
L 229.305424 263.422099
L 230.218894 250.994288
L 231.434202 234.39126
L 232.040748 228.576631
L 232.495185 225.798879
L 232.949221 224.414973
L 233.251692 224.232374
L 233.55399 224.60165
L 233.856116 225.483601
L 234.308985 227.681946
L 234.912224 232.050625
L 235.665345 239.398264
L 236.868255 253.831671
L 238.368417 271.320512
L 238.967439 276.289298
L 239.416326 278.647847
L 239.715405 279.420135
L 239.864892 279.541276
L 240.014344 279.477246
L 240.313143 278.777386
L 240.611805 277.306789
L 241.059541 273.709912
L 241.656054 266.715165
L 244.03696 235.180125
L 244.630956 230.801688
L 245.224482 227.946952
L 245.817549 226.137361
L 246.410168 225.055137
L 246.854345 224.703988
L 247.150328 224.732537
L 247.446206 225.008344
L 247.741978 225.557702
L 248.185444 226.917031
L 248.776378 229.635266
L 250.69424 239.596958
L 251.136269 240.541128
L 251.430844 240.662197
L 251.725333 240.345907
L 252.019736 239.583472
L 252.461182 237.62524
L 253.049488 233.683908
L 254.959326 219.209742
L 255.252869 218.419845
L 255.399614 218.307856
L 255.546342 218.39975
L 255.839745 219.225026
L 256.13308 220.925798
L 256.572957 225.063615
L 257.159233 233.078708
L 259.794518 273.931218
L 260.379538 278.912755
L 260.818173 281.291662
L 261.256701 282.518379
L 261.548996 282.700926
L 261.841247 282.377615
L 262.133454 281.550643
L 262.571686 279.373394
L 263.155856 274.748273
L 263.739874 268.188551
L 264.469699 257.264955
L 265.345221 240.111282
L 266.512184 211.623771
L 267.824556 180.083877
L 268.553479 167.97491
L 268.990783 163.48609
L 269.428056 161.077043
L 269.719554 160.498569
L 269.8653 160.472922
L 270.156782 160.858011
L 270.593987 162.229795
L 272.051233 167.704325
L 272.342672 168.14675
L 272.634109 168.236833
L 272.925547 167.968174
L 273.216987 167.35999
L 273.654151 165.916699
L 274.965718 160.857974
L 275.2572 160.472883
L 275.402946 160.498528
L 275.548693 160.694295
L 275.840198 161.661673
L 276.131717 163.486047
L 276.569021 167.974867
L 277.15215 177.234898
L 277.881167 193.144553
L 280.36093 252.034333
L 281.236644 266.247516
L 281.966644 274.748275
L 282.550814 279.373397
L 282.989046 281.550647
L 283.427373 282.602387
L 283.719646 282.673005
L 284.011963 282.236822
L 284.304327 281.291666
L 284.742962 278.912758
L 285.327982 273.93122
L 285.913208 266.914011
L 286.791456 253.172895
L 288.40295 226.829544
L 288.98942 220.925806
L 289.429448 218.703715
L 289.722886 218.307869
L 289.869631 218.419859
L 290.163174 219.209758
L 290.603624 221.582191
L 291.338078 227.462129
L 292.367124 235.821903
L 292.955595 239.036717
L 293.397167 240.34593
L 293.691656 240.66222
L 293.986231 240.541151
L 294.280895 240.007108
L 294.723059 238.522124
L 295.312932 235.585037
L 296.937056 226.917047
L 297.380522 225.557716
L 297.82422 224.837665
L 298.12015 224.689337
L 298.416187 224.772396
L 298.860445 225.263286
L 299.304951 226.137361
L 299.898018 227.946949
L 300.343119 229.96392
L 300.936996 233.91908
L 301.531352 239.671869
L 302.274986 249.310773
L 304.062959 273.709911
L 304.510695 277.306791
L 304.958739 279.223537
L 305.257608 279.541282
L 305.407095 279.420141
L 305.706174 278.647855
L 306.155061 276.289308
L 306.754083 271.320525
L 307.653726 261.308512
L 309.908905 234.767961
L 310.662642 228.629267
L 311.266384 225.483614
L 311.719637 224.350451
L 312.022021 224.25234
L 312.32458 224.724592
L 312.627315 225.798884
L 313.081752 228.576633
L 313.688298 234.391259
L 314.447515 244.330372
L 315.969491 265.164861
L 316.579642 270.774516
L 317.037778 273.493124
L 317.496369 275.087651
L 317.955421 275.85335
L 318.414939 276.121422
L 319.028366 276.133331
L 319.642648 275.905867
L 320.103929 275.425742
L 320.565705 274.451833
L 321.027983 272.804025
L 321.645143 269.479068
L 323.812533 255.811891
L 324.2785 254.741535
L 324.589452 254.615267
L 324.900652 254.935802
L 325.212101 255.655844
L 325.679749 257.342898
L 326.460441 261.171415
L 329.127159 274.997363
L 330.705133 282.160561
L 331.338336 284.158781
L 331.655378 284.680231
L 331.972716 284.75113
L 332.290354 284.276634
L 332.608293 283.179374
L 333.085772 280.273091
L 333.723488 274.143591
L 335.002687 257.897385
L 335.64421 251.063503
L 336.126211 247.809856
L 336.447958 246.73684
L 336.608956 246.538643
L 336.770039 246.559791
L 336.931205 246.790306
L 337.253792 247.820426
L 337.73831 250.48715
L 339.521579 262.154059
L 340.009793 263.890339
L 340.498825 264.873996
L 340.988686 265.361108
L 341.970931 266.068851
L 342.463336 266.733839
L 343.121227 268.082433
L 345.104408 272.723405
L 345.602488 273.288163
L 345.93506 273.426659
L 346.268052 273.355491
L 346.601465 273.064369
L 347.102386 272.209387
L 347.604275 270.877292
L 348.442945 267.836115
L 349.959595 262.011147
L 350.63664 260.340135
L 351.145653 259.675415
L 351.485587 259.504403
L 351.825999 259.520172
L 352.337523 259.79872
L 353.363878 260.507646
L 353.706992 260.496544
L 354.05061 260.194868
L 354.394736 259.480871
L 354.739375 258.218674
L 355.084531 256.261502
L 355.603243 251.692632
L 356.123143 244.743089
L 356.644244 235.054428
L 357.340943 217.670128
L 358.214914 189.595052
L 361.213133 85.508371
L 362.103126 64.475426
L 362.817894 52.348987
L 363.355615 46.174469
L 363.71489 43.552046
L 364.074806 42.204573
L 364.255007 42.030125
L 364.43537 42.198358
L 364.615897 42.714971
L 364.977443 44.806601
L 365.33965 48.307526
L 365.884215 56.097171
L 366.612674 70.629879
L 367.710546 98.40386
L 371.230024 191.60178
L 372.921122 231.125012
L 373.867634 248.228165
L 374.43801 255.449975
L 375.010273 259.871554
L 375.392842 261.16856
L 375.584449 261.323284
L 375.776271 261.157847
L 376.160566 259.914864
L 376.545738 257.569506
L 377.125156 252.38294
L 378.290085 238.833769
L 379.267212 228.041099
L 380.053178 221.669064
L 380.645192 218.547898
L 381.239421 216.726184
L 381.636821 216.079778
L 382.035232 215.746965
L 382.634767 215.55836
L 383.437785 215.301766
L 383.840879 214.981793
L 384.447533 214.112406
L 385.056638 212.675567
L 385.668236 210.567439
L 386.282367 207.654337
L 386.899075 203.775376
L 387.725436 196.904865
L 388.765104 185.962723
L 390.022842 172.898083
L 390.655973 168.734386
L 391.079674 167.583553
L 391.292014 167.5927
L 391.504683 168.020817
L 391.931016 170.17504
L 392.358691 174.03945
L 393.002751 182.661779
L 394.300262 205.299214
L 395.172415 218.809767
L 395.830385 225.450332
L 396.270903 227.730321
L 396.491731 228.206295
L 396.712942 228.255942
L 396.934537 227.904275
L 397.378893 226.142014
L 398.048379 221.578664
L 399.398241 211.223773
L 399.851502 208.958773
L 400.306456 207.766405
L 400.534574 207.612296
L 400.763125 207.758928
L 400.99211 208.201949
L 401.451397 209.928831
L 401.912461 212.646277
L 402.607444 218.12198
L 405.668112 244.841826
L 406.38629 248.975234
L 407.109139 251.77993
L 407.593686 252.842678
L 408.080392 253.242831
L 408.324565 253.200268
L 408.569291 253.004468
L 409.060418 252.197545
L 409.801367 250.202062
L 411.047953 246.418565
L 411.550788 245.414256
L 411.803126 245.128228
L 412.056084 245.013125
L 412.309669 245.08314
L 412.563885 245.346838
L 413.074234 246.458289
L 413.587177 248.287426
L 414.621031 253.352423
L 415.665832 258.317188
L 416.192467 259.928485
L 416.456865 260.388141
L 416.721994 260.581231
L 416.98786 260.489153
L 417.25447 260.100777
L 417.789951 258.430014
L 418.328497 255.637439
L 419.142195 249.777396
L 421.627668 230.090428
L 422.189481 227.14999
L 422.754904 225.048237
L 423.324017 223.745011
L 423.896901 223.113362
L 424.473642 222.965226
L 425.346179 223.172394
L 425.932954 223.290471
L 426.52391 223.193345
L 427.119146 222.769038
L 427.718768 221.962901
L 428.322884 220.771907
L 429.237732 218.34891
L 430.474357 214.252288
L 432.687667 205.888488
L 434.638693 198.621131
L 435.634344 195.595108
L 436.305988 194.095239
L 436.984164 193.186488
L 437.325767 192.998585
L 437.669082 193.008698
L 438.014138 193.228676
L 438.360963 193.666859
L 439.06004 195.210473
L 439.766558 197.618259
L 440.84086 202.61345
L 444.559829 222.082588
L 445.331632 224.663617
L 446.113676 226.453195
L 446.906404 227.46097
L 447.30692 227.698527
L 447.710289 227.782458
L 448.525842 227.583858
L 449.772266 226.783761
L 450.619495 226.252816
L 451.480521 225.970897
L 451.916434 225.976676
L 452.356075 226.10167
L 452.799544 226.356965
L 453.698399 227.282389
L 454.61391 228.76176
L 455.547075 230.748337
L 456.982372 234.479716
L 462.683966 250.500857
L 464.972234 255.848283
L 466.785534 259.600273
L 468.697413 263.137227
L 470.726342 266.421598
L 472.897362 269.382092
L 474.440541 271.140998
L 476.076672 272.715865
L 477.82515 274.112703
L 479.713207 275.355218
L 481.781223 276.484778
L 485.37456 278.096706
L 490.053923 279.857612
L 494.825596 281.412201
L 501.341248 283.151766
L 501.341248 283.151766
" clip-path="url(#pbe98582702)" style="fill: none; stroke: #1f77b4; stroke-width: 2.2; stroke-linecap: square"/>
   </g>
   <g id="line2d_34">
    <path d="M 43.78125 165.230125
L 501.34125 165.230125
" clip-path="url(#pbe98582702)" style="fill: none; stroke-dasharray: 3.7,1.6; stroke-dashoffset: 0; stroke: #595959"/>
   </g>
   <g id="line2d_35">
    <path d="M 180.867493 288.430125
L 180.867493 22.318125
" clip-path="url(#pbe98582702)" style="fill: none; stroke-dasharray: 1.2,1.98; stroke-dashoffset: 0; stroke: #d62728; stroke-width: 1.2"/>
   </g>
   <g id="line2d_36">
    <path d="M 174.932299 165.230125
L 186.241963 165.230125
" clip-path="url(#pbe98582702)" style="fill: none; stroke: #d62728; stroke-opacity: 0.55; stroke-width: 4; stroke-linecap: square"/>
   </g>
   <g id="line2d_37">
    <path d="M 364.255007 288.430125
L 364.255007 22.318125
" clip-path="url(#pbe98582702)" style="fill: none; stroke-dasharray: 1.2,1.98; stroke-dashoffset: 0; stroke: #d62728; stroke-width: 1.2"/>
   </g>
   <g id="line2d_38">
    <path d="M 358.880538 165.230125
L 370.190201 165.230125
" clip-path="url(#pbe98582702)" style="fill: none; stroke: #d62728; stroke-opacity: 0.55; stroke-width: 4; stroke-linecap: square"/>
   </g>
   <g id="patch_3">
    <path d="M 43.78125 288.430125
L 43.78125 22.318125
" style="fill: none; stroke: #000000; stroke-width: 0.8; stroke-linejoin: miter; stroke-linecap: square"/>
   </g>
   <g id="patch_4">
    <path d="M 501.34125 288.430125
L 501.34125 22.318125
" style="fill: none; stroke: #000000; stroke-width: 0.8; stroke-linejoin: miter; stroke-linecap: square"/>
   </g>
   <g id="patch_5">
    <path d="M 43.78125 288.430125
L 501.34125 288.430125
" style="fill: none; stroke: #000000; stroke-width: 0.8; stroke-linejoin: miter; stroke-linecap: square"/>
   </g>
   <g id="patch_6">
    <path d="M 43.78125 22.318125
L 501.34125 22.318125
" style="fill: none; stroke: #000000; stroke-width: 0.8; stroke-linejoin: miter; stroke-linecap: square"/>
   </g>
   <g id="patch_7">
    <path d="M 222.538143 76.056305
Q 202.477276 59.675599 183.10921 43.8606
" style="fill: none; stroke: #000000; stroke-width: 0.8; stroke-linecap: round"/>
    <path d="M 184.75922 47.531767
L 183.10921 43.8606
L 187.03615 44.743292
" style="fill: none; stroke: #000000; stroke-width: 0.8; stroke-linecap: round"/>
   </g>
   <g id="text_18">
    <!-- peak -36.07 deg -->
    <g transform="translate(201.203493 86.160094) scale(0.09 -0.09)">
     <defs>
      <path id="DejaVuSans-70" d="M 1159 525
L 1159 -1331
L 581 -1331
L 581 3500
L 1159 3500
L 1159 2969
Q 1341 3281 1617 3432
Q 1894 3584 2278 3584
Q 2916 3584 3314 3078
Q 3713 2572 3713 1747
Q 3713 922 3314 415
Q 2916 -91 2278 -91
Q 1894 -91 1617 61
Q 1341 213 1159 525
z
M 3116 1747
Q 3116 2381 2855 2742
Q 2594 3103 2138 3103
Q 1681 3103 1420 2742
Q 1159 2381 1159 1747
Q 1159 1113 1420 752
Q 1681 391 2138 391
Q 2594 391 2855 752
Q 3116 1113 3116 1747
z
" transform="scale(0.015625)"/>
      <path id="DejaVuSans-6b" d="M 581 4863
L 1159 4863
L 1159 1991
L 2875 3500
L 3609 3500
L 1753 1863
L 3688 0
L 2938 0
L 1159 1709
L 1159 0
L 581 0
L 581 4863
z
" transform="scale(0.015625)"/>
      <path id="DejaVuSans-33" d="M 2597 2516
Q 3050 2419 3304 2112
Q 3559 1806 3559 1356
Q 3559 666 3084 287
Q 2609 -91 1734 -91
Q 1441 -91 1130 -33
Q 819 25 488 141
L 488 750
Q 750 597 1062 519
Q 1375 441 1716 441
Q 2309 441 2620 675
Q 2931 909 2931 1356
Q 2931 1769 2642 2001
Q 2353 2234 1838 2234
L 1294 2234
L 1294 2753
L 1863 2753
Q 2328 2753 2575 2939
Q 2822 3125 2822 3475
Q 2822 3834 2567 4026
Q 2313 4219 1838 4219
Q 1578 4219 1281 4162
Q 984 4106 628 3988
L 628 4550
Q 988 4650 1302 4700
Q 1616 4750 1894 4750
Q 2613 4750 3031 4423
Q 3450 4097 3450 3541
Q 3450 3153 3228 2886
Q 3006 2619 2597 2516
z
" transform="scale(0.015625)"/>
      <path id="DejaVuSans-37" d="M 525 4666
L 3525 4666
L 3525 4397
L 1831 0
L 1172 0
L 2766 4134
L 525 4134
L 525 4666
z
" transform="scale(0.015625)"/>
     </defs>
     <use xlink:href="#DejaVuSans-70"/>
     <use xlink:href="#DejaVuSans-65" transform="translate(63.476562 0)"/>
     <use xlink:href="#DejaVuSans-61" transform="translate(125 0)"/>
     <use xlink:href="#DejaVuSans-6b" transform="translate(186.279297 0)"/>
     <use xlink:href="#DejaVuSans-20" transform="translate(244.189453 0)"/>
     <use xlink:href="#DejaVuSans-2d" transform="translate(275.976562 0)"/>
     <use xlink:href="#DejaVuSans-33" transform="translate(312.060547 0)"/>
     <use xlink:href="#DejaVuSans-36" transform="translate(375.683594 0)"/>
     <use xlink:href="#DejaVuSans-2e" transform="translate(439.306641 0)"/>
     <use xlink:href="#DejaVuSans-30" transform="translate(471.09375 0)"/>
     <use xlink:href="#DejaVuSans-37" transform="translate(534.716797 0)"/>
     <use xlink:href="#DejaVuSans-20" transform="translate(598.339844 0)"/>
     <use xlink:href="#DejaVuSans-64" transform="translate(630.126953 0)"/>
     <use xlink:href="#DejaVuSans-65" transform="translate(693.603516 0)"/>
     <use xlink:href="#DejaVuSans-67" transform="translate(755.126953 0)"/>
    </g>
    <!-- FWHM 4.45 deg -->
    <g transform="translate(201.203493 96.238125) scale(0.09 -0.09)">
     <defs>
      <path id="DejaVuSans-46" d="M 628 4666
L 3309 4666
L 3309 4134
L 1259 4134
L 1259 2759
L 3109 2759
L 3109 2228
L 1259 2228
L 1259 0
L 628 0
L 628 4666
z
" transform="scale(0.015625)"/>
      <path id="DejaVuSans-57" d="M 213 4666
L 850 4666
L 1831 722
L 2809 4666
L 3519 4666
L 4500 722
L 5478 4666
L 6119 4666
L 4947 0
L 4153 0
L 3169 4050
L 2175 0
L 1381 0
L 213 4666
z
" transform="scale(0.015625)"/>
      <path id="DejaVuSans-48" d="M 628 4666
L 1259 4666
L 1259 2753
L 3553 2753
L 3553 4666
L 4184 4666
L 4184 0
L 3553 0
L 3553 2222
L 1259 2222
L 1259 0
L 628 0
L 628 4666
z
" transform="scale(0.015625)"/>
      <path id="DejaVuSans-4d" d="M 628 4666
L 1569 4666
L 2759 1491
L 3956 4666
L 4897 4666
L 4897 0
L 4281 0
L 4281 4097
L 3078 897
L 2444 897
L 1241 4097
L 1241 0
L 628 0
L 628 4666
z
" transform="scale(0.015625)"/>
      <path id="DejaVuSans-35" d="M 691 4666
L 3169 4666
L 3169 4134
L 1269 4134
L 1269 2991
Q 1406 3038 1543 3061
Q 1681 3084 1819 3084
Q 2600 3084 3056 2656
Q 3513 2228 3513 1497
Q 3513 744 3044 326
Q 2575 -91 1722 -91
Q 1428 -91 1123 -41
Q 819 9 494 109
L 494 744
Q 775 591 1075 516
Q 1375 441 1709 441
Q 2250 441 2565 725
Q 2881 1009 2881 1497
Q 2881 1984 2565 2268
Q 2250 2553 1709 2553
Q 1456 2553 1204 2497
Q 953 2441 691 2322
L 691 4666
z
" transform="scale(0.015625)"/>
     </defs>
     <use xlink:href="#DejaVuSans-46"/>
     <use xlink:href="#DejaVuSans-57" transform="translate(57.519531 0)"/>
     <use xlink:href="#DejaVuSans-48" transform="translate(156.396484 0)"/>
     <use xlink:href="#DejaVuSans-4d" transform="translate(231.591797 0)"/>
     <use xlink:href="#DejaVuSans-20" transform="translate(317.871094 0)"/>
     <use xlink:href="#DejaVuSans-34" transform="translate(349.658203 0)"/>
     <use xlink:href="#DejaVuSans-2e" transform="translate(413.28125 0)"/>
     <use xlink:href="#DejaVuSans-34" transform="translate(445.068359 0)"/>
     <use xlink:href="#DejaVuSans-35" transform="translate(508.691406 0)"/>
     <use xlink:href="#DejaVuSans-20" transform="translate(572.314453 0)"/>
     <use xlink:href="#DejaVuSans-64" transform="translate(604.101562 0)"/>
     <use xlink:href="#DejaVuSans-65" transform="translate(667.578125 0)"/>
     <use xlink:href="#DejaVuSans-67" transform="translate(729.101562 0)"/>
    </g>
   </g>
   <g id="patch_8">
    <path d="M 341.057704 75.6729
Q 352.088599 59.674923 362.611767 44.413296
" style="fill: none; stroke: #000000; stroke-width: 0.8; stroke-linecap: round"/>
    <path d="M 359.086326 46.355271
L 362.611767 44.413296
L 362.050082 48.398834
" style="fill: none; stroke: #000000; stroke-width: 0.8; stroke-linecap: round"/>
   </g>
   <g id="text_19">
    <!-- peak +36.07 deg -->
    <g transform="translate(293.079007 86.160094) scale(0.09 -0.09)">
     <defs>
      <path id="DejaVuSans-2b" d="M 2944 4013
L 2944 2272
L 4684 2272
L 4684 1741
L 2944 1741
L 2944 0
L 2419 0
L 2419 1741
L 678 1741
L 678 2272
L 2419 2272
L 2419 4013
L 2944 4013
z
" transform="scale(0.015625)"/>
     </defs>
     <use xlink:href="#DejaVuSans-70"/>
     <use xlink:href="#DejaVuSans-65" transform="translate(63.476562 0)"/>
     <use xlink:href="#DejaVuSans-61" transform="translate(125 0)"/>
     <use xlink:href="#DejaVuSans-6b" transform="translate(186.279297 0)"/>
     <use xlink:href="#DejaVuSans-20" transform="translate(244.189453 0)"/>
     <use xlink:href="#DejaVuSans-2b" transform="translate(275.976562 0)"/>
     <use xlink:href="#DejaVuSans-33" transform="translate(359.765625 0)"/>
     <use xlink:href="#DejaVuSans-36" transform="translate(423.388672 0)"/>
     <use xlink:href="#DejaVuSans-2e" transform="translate(487.011719 0)"/>
     <use xlink:href="#DejaVuSans-30" transform="translate(518.798828 0)"/>
     <use xlink:href="#DejaVuSans-37" transform="translate(582.421875 0)"/>
     <use xlink:href="#DejaVuSans-20" transform="translate(646.044922 0)"/>
     <use xlink:href="#DejaVuSans-64" transform="translate(677.832031 0)"/>
     <use xlink:href="#DejaVuSans-65" transform="translate(741.308594 0)"/>
     <use xlink:href="#DejaVuSans-67" transform="translate(802.832031 0)"/>
    </g>
    <!-- FWHM 4.45 deg -->
    <g transform="translate(293.079007 96.238125) scale(0.09 -0.09)">
     <use xlink:href="#DejaVuSans-46"/>
     <use xlink:href="#DejaVuSans-57" transform="translate(57.519531 0)"/>
     <use xlink:href="#DejaVuSans-48" transform="translate(156.396484 0)"/>
     <use xlink:href="#DejaVuSans-4d" transform="translate(231.591797 0)"/>
     <use xlink:href="#DejaVuSans-20" transform="translate(317.871094 0)"/>
     <use xlink:href="#DejaVuSans-34" transform="translate(349.658203 0)"/>
     <use xlink:href="#DejaVuSans-2e" transform="translate(413.28125 0)"/>
     <use xlink:href="#DejaVuSans-34" transform="translate(445.068359 0)"/>
     <use xlink:href="#DejaVuSans-35" transform="translate(508.691406 0)"/>
     <use xlink:href="#DejaVuSans-20" transform="translate(572.314453 0)"/>
     <use xlink:href="#DejaVuSans-64" transform="translate(604.101562 0)"/>
     <use xlink:href="#DejaVuSans-65" transform="translate(667.578125 0)"/>
     <use xlink:href="#DejaVuSans-67" transform="translate(729.101562 0)"/>
    </g>
   </g>
   <g id="text_20">
    <!-- R2-2D 453 nm far-field angle cuts -->
    <g transform="translate(171.1275 16.318125) scale(0.12 -0.12)">
     <defs>
      <path id="DejaVuSans-52" d="M 2841 2188
Q 3044 2119 3236 1894
Q 3428 1669 3622 1275
L 4263 0
L 3584 0
L 2988 1197
Q 2756 1666 2539 1819
Q 2322 1972 1947 1972
L 1259 1972
L 1259 0
L 628 0
L 628 4666
L 2053 4666
Q 2853 4666 3247 4331
Q 3641 3997 3641 3322
Q 3641 2881 3436 2590
Q 3231 2300 2841 2188
z
M 1259 4147
L 1259 2491
L 2053 2491
Q 2509 2491 2742 2702
Q 2975 2913 2975 3322
Q 2975 3731 2742 3939
Q 2509 4147 2053 4147
L 1259 4147
z
" transform="scale(0.015625)"/>
      <path id="DejaVuSans-44" d="M 1259 4147
L 1259 519
L 2022 519
Q 2988 519 3436 956
Q 3884 1394 3884 2338
Q 3884 3275 3436 3711
Q 2988 4147 2022 4147
L 1259 4147
z
M 628 4666
L 1925 4666
Q 3281 4666 3915 4102
Q 4550 3538 4550 2338
Q 4550 1131 3912 565
Q 3275 0 1925 0
L 628 0
L 628 4666
z
" transform="scale(0.015625)"/>
     </defs>
     <use xlink:href="#DejaVuSans-52"/>
     <use xlink:href="#DejaVuSans-32" transform="translate(69.482422 0)"/>
     <use xlink:href="#DejaVuSans-2d" transform="translate(133.105469 0)"/>
     <use xlink:href="#DejaVuSans-32" transform="translate(169.189453 0)"/>
     <use xlink:href="#DejaVuSans-44" transform="translate(232.8125 0)"/>
     <use xlink:href="#DejaVuSans-20" transform="translate(309.814453 0)"/>
     <use xlink:href="#DejaVuSans-34" transform="translate(341.601562 0)"/>
     <use xlink:href="#DejaVuSans-35" transform="translate(405.224609 0)"/>
     <use xlink:href="#DejaVuSans-33" transform="translate(468.847656 0)"/>
     <use xlink:href="#DejaVuSans-20" transform="translate(532.470703 0)"/>
     <use xlink:href="#DejaVuSans-6e" transform="translate(564.257812 0)"/>
     <use xlink:href="#DejaVuSans-6d" transform="translate(627.636719 0)"/>
     <use xlink:href="#DejaVuSans-20" transform="translate(725.048828 0)"/>
     <use xlink:href="#DejaVuSans-66" transform="translate(756.835938 0)"/>
     <use xlink:href="#DejaVuSans-61" transform="translate(792.041016 0)"/>
     <use xlink:href="#DejaVuSans-72" transform="translate(853.320312 0)"/>
     <use xlink:href="#DejaVuSans-2d" transform="translate(888.058594 0)"/>
     <use xlink:href="#DejaVuSans-66" transform="translate(924.142578 0)"/>
     <use xlink:href="#DejaVuSans-69" transform="translate(959.347656 0)"/>
     <use xlink:href="#DejaVuSans-65" transform="translate(987.130859 0)"/>
     <use xlink:href="#DejaVuSans-6c" transform="translate(1048.654297 0)"/>
     <use xlink:href="#DejaVuSans-64" transform="translate(1076.4375 0)"/>
     <use xlink:href="#DejaVuSans-20" transform="translate(1139.914062 0)"/>
     <use xlink:href="#DejaVuSans-61" transform="translate(1171.701172 0)"/>
     <use xlink:href="#DejaVuSans-6e" transform="translate(1232.980469 0)"/>
     <use xlink:href="#DejaVuSans-67" transform="translate(1296.359375 0)"/>
     <use xlink:href="#DejaVuSans-6c" transform="translate(1359.835938 0)"/>
     <use xlink:href="#DejaVuSans-65" transform="translate(1387.619141 0)"/>
     <use xlink:href="#DejaVuSans-20" transform="translate(1449.142578 0)"/>
     <use xlink:href="#DejaVuSans-63" transform="translate(1480.929688 0)"/>
     <use xlink:href="#DejaVuSans-75" transform="translate(1535.910156 0)"/>
     <use xlink:href="#DejaVuSans-74" transform="translate(1599.289062 0)"/>
     <use xlink:href="#DejaVuSans-73" transform="translate(1638.498047 0)"/>
    </g>
   </g>
   <g id="legend_1">
    <g id="line2d_39">
     <path d="M 245.901562 34.106719
L 254.901562 34.106719
L 263.901562 34.106719
" style="fill: none; stroke: #d62728; stroke-width: 1.5; stroke-linecap: square"/>
    </g>
    <g id="text_21">
     <!-- center_x -->
     <g transform="translate(271.101562 37.256719) scale(0.09 -0.09)">
      <defs>
       <path id="DejaVuSans-5f" d="M 3263 -1063
L 3263 -1509
L -63 -1509
L -63 -1063
L 3263 -1063
z
" transform="scale(0.015625)"/>
       <path id="DejaVuSans-78" d="M 3513 3500
L 2247 1797
L 3578 0
L 2900 0
L 1881 1375
L 863 0
L 184 0
L 1544 1831
L 300 3500
L 978 3500
L 1906 2253
L 2834 3500
L 3513 3500
z
" transform="scale(0.015625)"/>
      </defs>
      <use xlink:href="#DejaVuSans-63"/>
      <use xlink:href="#DejaVuSans-65" transform="translate(54.980469 0)"/>
      <use xlink:href="#DejaVuSans-6e" transform="translate(116.503906 0)"/>
      <use xlink:href="#DejaVuSans-74" transform="translate(179.882812 0)"/>
      <use xlink:href="#DejaVuSans-65" transform="translate(219.091797 0)"/>
      <use xlink:href="#DejaVuSans-72" transform="translate(280.615234 0)"/>
      <use xlink:href="#DejaVuSans-5f" transform="translate(321.728516 0)"/>
      <use xlink:href="#DejaVuSans-78" transform="translate(371.728516 0)"/>
     </g>
    </g>
    <g id="line2d_40">
     <path d="M 245.901562 47.567344
L 254.901562 47.567344
L 263.901562 47.567344
" style="fill: none; stroke: #2ca02c; stroke-width: 1.5; stroke-linecap: square"/>
    </g>
    <g id="text_22">
     <!-- center_z_outofplane -->
     <g transform="translate(271.101562 50.717344) scale(0.09 -0.09)">
      <use xlink:href="#DejaVuSans-63"/>
      <use xlink:href="#DejaVuSans-65" transform="translate(54.980469 0)"/>
      <use xlink:href="#DejaVuSans-6e" transform="translate(116.503906 0)"/>
      <use xlink:href="#DejaVuSans-74" transform="translate(179.882812 0)"/>
      <use xlink:href="#DejaVuSans-65" transform="translate(219.091797 0)"/>
      <use xlink:href="#DejaVuSans-72" transform="translate(280.615234 0)"/>
      <use xlink:href="#DejaVuSans-5f" transform="translate(321.728516 0)"/>
      <use xlink:href="#DejaVuSans-7a" transform="translate(371.728516 0)"/>
      <use xlink:href="#DejaVuSans-5f" transform="translate(424.21875 0)"/>
      <use xlink:href="#DejaVuSans-6f" transform="translate(474.21875 0)"/>
      <use xlink:href="#DejaVuSans-75" transform="translate(535.400391 0)"/>
      <use xlink:href="#DejaVuSans-74" transform="translate(598.779297 0)"/>
      <use xlink:href="#DejaVuSans-6f" transform="translate(637.988281 0)"/>
      <use xlink:href="#DejaVuSans-66" transform="translate(699.169922 0)"/>
      <use xlink:href="#DejaVuSans-70" transform="translate(734.375 0)"/>
      <use xlink:href="#DejaVuSans-6c" transform="translate(797.851562 0)"/>
      <use xlink:href="#DejaVuSans-61" transform="translate(825.634766 0)"/>
      <use xlink:href="#DejaVuSans-6e" transform="translate(886.914062 0)"/>
      <use xlink:href="#DejaVuSans-65" transform="translate(950.292969 0)"/>
     </g>
    </g>
    <g id="line2d_41">
     <path d="M 380.166094 34.106719
L 389.166094 34.106719
L 398.166094 34.106719
" style="fill: none; stroke: #1f77b4; stroke-width: 2.2; stroke-linecap: square"/>
    </g>
    <g id="text_23">
     <!-- incoherent average -->
     <g transform="translate(405.366094 37.256719) scale(0.09 -0.09)">
      <defs>
       <path id="DejaVuSans-68" d="M 3513 2113
L 3513 0
L 2938 0
L 2938 2094
Q 2938 2591 2744 2837
Q 2550 3084 2163 3084
Q 1697 3084 1428 2787
Q 1159 2491 1159 1978
L 1159 0
L 581 0
L 581 4863
L 1159 4863
L 1159 2956
Q 1366 3272 1645 3428
Q 1925 3584 2291 3584
Q 2894 3584 3203 3211
Q 3513 2838 3513 2113
z
" transform="scale(0.015625)"/>
       <path id="DejaVuSans-76" d="M 191 3500
L 800 3500
L 1894 563
L 2988 3500
L 3597 3500
L 2284 0
L 1503 0
L 191 3500
z
" transform="scale(0.015625)"/>
      </defs>
      <use xlink:href="#DejaVuSans-69"/>
      <use xlink:href="#DejaVuSans-6e" transform="translate(27.783203 0)"/>
      <use xlink:href="#DejaVuSans-63" transform="translate(91.162109 0)"/>
      <use xlink:href="#DejaVuSans-6f" transform="translate(146.142578 0)"/>
      <use xlink:href="#DejaVuSans-68" transform="translate(207.324219 0)"/>
      <use xlink:href="#DejaVuSans-65" transform="translate(270.703125 0)"/>
      <use xlink:href="#DejaVuSans-72" transform="translate(332.226562 0)"/>
      <use xlink:href="#DejaVuSans-65" transform="translate(371.089844 0)"/>
      <use xlink:href="#DejaVuSans-6e" transform="translate(432.613281 0)"/>
      <use xlink:href="#DejaVuSans-74" transform="translate(495.992188 0)"/>
      <use xlink:href="#DejaVuSans-20" transform="translate(535.201172 0)"/>
      <use xlink:href="#DejaVuSans-61" transform="translate(566.988281 0)"/>
      <use xlink:href="#DejaVuSans-76" transform="translate(628.267578 0)"/>
      <use xlink:href="#DejaVuSans-65" transform="translate(687.447266 0)"/>
      <use xlink:href="#DejaVuSans-72" transform="translate(748.970703 0)"/>
      <use xlink:href="#DejaVuSans-61" transform="translate(790.083984 0)"/>
      <use xlink:href="#DejaVuSans-67" transform="translate(851.363281 0)"/>
      <use xlink:href="#DejaVuSans-65" transform="translate(914.839844 0)"/>
     </g>
    </g>
    <g id="line2d_42">
     <path d="M 380.166094 47.317031
L 389.166094 47.317031
L 398.166094 47.317031
" style="fill: none; stroke-dasharray: 3.7,1.6; stroke-dashoffset: 0; stroke: #595959"/>
    </g>
    <g id="text_24">
     <!-- half maximum -->
     <g transform="translate(405.366094 50.467031) scale(0.09 -0.09)">
      <use xlink:href="#DejaVuSans-68"/>
      <use xlink:href="#DejaVuSans-61" transform="translate(63.378906 0)"/>
      <use xlink:href="#DejaVuSans-6c" transform="translate(124.658203 0)"/>
      <use xlink:href="#DejaVuSans-66" transform="translate(152.441406 0)"/>
      <use xlink:href="#DejaVuSans-20" transform="translate(187.646484 0)"/>
      <use xlink:href="#DejaVuSans-6d" transform="translate(219.433594 0)"/>
      <use xlink:href="#DejaVuSans-61" transform="translate(316.845703 0)"/>
      <use xlink:href="#DejaVuSans-78" transform="translate(378.125 0)"/>
      <use xlink:href="#DejaVuSans-69" transform="translate(437.304688 0)"/>
      <use xlink:href="#DejaVuSans-6d" transform="translate(465.087891 0)"/>
      <use xlink:href="#DejaVuSans-75" transform="translate(562.5 0)"/>
      <use xlink:href="#DejaVuSans-6d" transform="translate(625.878906 0)"/>
     </g>
    </g>
   </g>
  </g>
 </g>
 <defs>
  <clipPath id="pbe98582702">
   <rect x="43.78125" y="22.318125" width="457.56" height="266.112"/>
  </clipPath>
 </defs>
</svg>
