<?xml version="1.0" encoding="utf-8" standalone="no"?>
<!DOCTYPE svg PUBLIC "-//W3C//DTD SVG 1.1//EN"
  "http://www.w3.org/Graphics/SVG/1.1/DTD/svg11.dtd">
<svg xmlns:xlink="http://www.w3.org/1999/xlink" width="410.198906pt" height="407.744365pt" viewBox="0 0 410.198906 407.744365" xmlns="http://www.w3.org/2000/svg" version="1.1">
 <metadata>
  <rdf:RDF xmlns:dc="http://purl.org/dc/elements/1.1/" xmlns:cc="http://creativecommons.org/ns#" xmlns:rdf="http://www.w3.org/1999/02/22-rdf-syntax-ns#">
   <cc:Work>
    <dc:type rdf:resource="http://purl.org/dc/dcmitype/StillImage"/>
    <dc:date>2026-07-01T13:28:04.085176</dc:date>
    <dc:format>image/svg+xml</dc:format>
    <dc:creator>
     <cc:Agent>
      <dc:title>Matplotlib v3.10.9, https://matplotlib.org/</dc:title>
     </cc:Agent>
    </dc:creator>
   </cc:Work>
  </rdf:RDF>
 </metadata>
 <defs>
  <style type="text/css">*{stroke-linejoin: round; stroke-linecap: butt}</style>
 </defs>
 <g id="figure_1">
  <g id="patch_1">
   <path d="M 0 407.744365
L 410.198906 407.744365
L 410.198906 0
L 0 0
z
" style="fill: #ffffff"/>
  </g>
  <g id="axes_1">
   <g id="patch_2">
    <path d="M 354.787453 258.850125
C 354.787453 219.165625 339.006032 181.065904 310.944853 153.004725
C 282.883674 124.943546 244.783953 109.162125 205.099453 109.162125
C 165.414953 109.162125 127.315232 124.943546 99.254053 153.004725
C 71.192874 181.065904 55.411453 219.165625 55.411453 258.850125
L 205.099453 258.850125
C 205.099453 258.850125 205.099453 258.850125 205.099453 258.850125
C 205.099453 258.850125 205.099453 258.850125 205.099453 258.850125
C 205.099453 258.850125 205.099453 258.850125 205.099453 258.850125
C 205.099453 258.850125 205.099453 258.850125 205.099453 258.850125
z
" style="fill: #ffffff"/>
   </g>
   <g id="matplotlib.axis_1">
    <g id="xtick_1">
     <g id="line2d_1">
      <path d="M 205.099453 258.850125
L 55.411453 258.850125
" clip-path="url(#p90f30ba9d8)" style="fill: none; stroke: #b0b0b0; stroke-width: 0.8; stroke-linecap: square"/>
     </g>
     <g id="text_1">
      <!-- -90掳 -->
      <g transform="translate(30.745047 261.6095) scale(0.1 -0.1)">
       <defs>
        <path id="DejaVuSans-2d" d="M 313 2009
L 1997 2009
L 1997 1497
L 313 1497
L 313 2009
z
" transform="scale(0.015625)"/>
        <path id="DejaVuSans-39" d="M 703 97
L 703 672
Q 941 559 1184 500
Q 1428 441 1663 441
Q 2288 441 2617 861
Q 2947 1281 2994 2138
Q 2813 1869 2534 1725
Q 2256 1581 1919 1581
Q 1219 1581 811 2004
Q 403 2428 403 3163
Q 403 3881 828 4315
Q 1253 4750 1959 4750
Q 2769 4750 3195 4129
Q 3622 3509 3622 2328
Q 3622 1225 3098 567
Q 2575 -91 1691 -91
Q 1453 -91 1209 -44
Q 966 3 703 97
z
M 1959 2075
Q 2384 2075 2632 2365
Q 2881 2656 2881 3163
Q 2881 3666 2632 3958
Q 2384 4250 1959 4250
Q 1534 4250 1286 3958
Q 1038 3666 1038 3163
Q 1038 2656 1286 2365
Q 1534 2075 1959 2075
z
" transform="scale(0.015625)"/>
        <path id="DejaVuSans-30" d="M 2034 4250
Q 1547 4250 1301 3770
Q 1056 3291 1056 2328
Q 1056 1369 1301 889
Q 1547 409 2034 409
Q 2525 409 2770 889
Q 3016 1369 3016 2328
Q 3016 3291 2770 3770
Q 2525 4250 2034 4250
z
M 2034 4750
Q 2819 4750 3233 4129
Q 3647 3509 3647 2328
Q 3647 1150 3233 529
Q 2819 -91 2034 -91
Q 1250 -91 836 529
Q 422 1150 422 2328
Q 422 3509 836 4129
Q 1250 4750 2034 4750
z
" transform="scale(0.015625)"/>
        <path id="DejaVuSans-b0" d="M 1600 4347
Q 1350 4347 1178 4173
Q 1006 4000 1006 3750
Q 1006 3503 1178 3333
Q 1350 3163 1600 3163
Q 1850 3163 2022 3333
Q 2194 3503 2194 3750
Q 2194 3997 2020 4172
Q 1847 4347 1600 4347
z
M 1600 4750
Q 1800 4750 1984 4673
Q 2169 4597 2303 4453
Q 2447 4313 2519 4134
Q 2591 3956 2591 3750
Q 2591 3338 2302 3052
Q 2013 2766 1594 2766
Q 1172 2766 890 3047
Q 609 3328 609 3750
Q 609 4169 896 4459
Q 1184 4750 1600 4750
z
" transform="scale(0.015625)"/>
       </defs>
       <use xlink:href="#DejaVuSans-2d"/>
       <use xlink:href="#DejaVuSans-39" transform="translate(36.083984 0)"/>
       <use xlink:href="#DejaVuSans-30" transform="translate(99.707031 0)"/>
       <use xlink:href="#DejaVuSans-b0" transform="translate(163.330078 0)"/>
      </g>
     </g>
    </g>
    <g id="xtick_2">
     <g id="line2d_2">
      <path d="M 205.099453 258.850125
L 75.465842 184.006125
" clip-path="url(#p90f30ba9d8)" style="fill: none; stroke: #b0b0b0; stroke-width: 0.8; stroke-linecap: square"/>
     </g>
     <g id="text_2">
      <!-- -60掳 -->
      <g transform="translate(52.675081 179.7655) scale(0.1 -0.1)">
       <defs>
        <path id="DejaVuSans-36" d="M 2113 2584
Q 1688 2584 1439 2293
Q 1191 2003 1191 1497
Q 1191 994 1439 701
Q 1688 409 2113 409
Q 2538 409 2786 701
Q 3034 994 3034 1497
Q 3034 2003 2786 2293
Q 2538 2584 2113 2584
z
M 3366 4563
L 3366 3988
Q 3128 4100 2886 4159
Q 2644 4219 2406 4219
Q 1781 4219 1451 3797
Q 1122 3375 1075 2522
Q 1259 2794 1537 2939
Q 1816 3084 2150 3084
Q 2853 3084 3261 2657
Q 3669 2231 3669 1497
Q 3669 778 3244 343
Q 2819 -91 2113 -91
Q 1303 -91 875 529
Q 447 1150 447 2328
Q 447 3434 972 4092
Q 1497 4750 2381 4750
Q 2619 4750 2861 4703
Q 3103 4656 3366 4563
z
" transform="scale(0.015625)"/>
       </defs>
       <use xlink:href="#DejaVuSans-2d"/>
       <use xlink:href="#DejaVuSans-36" transform="translate(36.083984 0)"/>
       <use xlink:href="#DejaVuSans-30" transform="translate(99.707031 0)"/>
       <use xlink:href="#DejaVuSans-b0" transform="translate(163.330078 0)"/>
      </g>
     </g>
    </g>
    <g id="xtick_3">
     <g id="line2d_3">
      <path d="M 205.099453 258.850125
L 130.255453 129.216514
" clip-path="url(#p90f30ba9d8)" style="fill: none; stroke: #b0b0b0; stroke-width: 0.8; stroke-linecap: square"/>
     </g>
     <g id="text_3">
      <!-- -30掳 -->
      <g transform="translate(112.589047 119.851534) scale(0.1 -0.1)">
       <defs>
        <path id="DejaVuSans-33" d="M 2597 2516
Q 3050 2419 3304 2112
Q 3559 1806 3559 1356
Q 3559 666 3084 287
Q 2609 -91 1734 -91
Q 1441 -91 1130 -33
Q 819 25 488 141
L 488 750
Q 750 597 1062 519
Q 1375 441 1716 441
Q 2309 441 2620 675
Q 2931 909 2931 1356
Q 2931 1769 2642 2001
Q 2353 2234 1838 2234
L 1294 2234
L 1294 2753
L 1863 2753
Q 2328 2753 2575 2939
Q 2822 3125 2822 3475
Q 2822 3834 2567 4026
Q 2313 4219 1838 4219
Q 1578 4219 1281 4162
Q 984 4106 628 3988
L 628 4550
Q 988 4650 1302 4700
Q 1616 4750 1894 4750
Q 2613 4750 3031 4423
Q 3450 4097 3450 3541
Q 3450 3153 3228 2886
Q 3006 2619 2597 2516
z
" transform="scale(0.015625)"/>
       </defs>
       <use xlink:href="#DejaVuSans-2d"/>
       <use xlink:href="#DejaVuSans-33" transform="translate(36.083984 0)"/>
       <use xlink:href="#DejaVuSans-30" transform="translate(99.707031 0)"/>
       <use xlink:href="#DejaVuSans-b0" transform="translate(163.330078 0)"/>
      </g>
     </g>
    </g>
    <g id="xtick_4">
     <g id="line2d_4">
      <path d="M 205.099453 258.850125
L 205.099453 109.162125
" clip-path="url(#p90f30ba9d8)" style="fill: none; stroke: #b0b0b0; stroke-width: 0.8; stroke-linecap: square"/>
     </g>
     <g id="text_4">
      <!-- 0掳 -->
      <g transform="translate(199.418203 97.9215) scale(0.1 -0.1)">
       <use xlink:href="#DejaVuSans-30"/>
       <use xlink:href="#DejaVuSans-b0" transform="translate(63.623047 0)"/>
      </g>
     </g>
    </g>
    <g id="xtick_5">
     <g id="line2d_5">
      <path d="M 205.099453 258.850125
L 279.943453 129.216514
" clip-path="url(#p90f30ba9d8)" style="fill: none; stroke: #b0b0b0; stroke-width: 0.8; stroke-linecap: square"/>
     </g>
     <g id="text_5">
      <!-- 30掳 -->
      <g transform="translate(278.080953 119.851534) scale(0.1 -0.1)">
       <use xlink:href="#DejaVuSans-33"/>
       <use xlink:href="#DejaVuSans-30" transform="translate(63.623047 0)"/>
       <use xlink:href="#DejaVuSans-b0" transform="translate(127.246094 0)"/>
      </g>
     </g>
    </g>
    <g id="xtick_6">
     <g id="line2d_6">
      <path d="M 205.099453 258.850125
L 334.733064 184.006125
" clip-path="url(#p90f30ba9d8)" style="fill: none; stroke: #b0b0b0; stroke-width: 0.8; stroke-linecap: square"/>
     </g>
     <g id="text_6">
      <!-- 60掳 -->
      <g transform="translate(337.994919 179.7655) scale(0.1 -0.1)">
       <use xlink:href="#DejaVuSans-36"/>
       <use xlink:href="#DejaVuSans-30" transform="translate(63.623047 0)"/>
       <use xlink:href="#DejaVuSans-b0" transform="translate(127.246094 0)"/>
      </g>
     </g>
    </g>
    <g id="xtick_7">
     <g id="line2d_7">
      <path d="M 205.099453 258.850125
L 354.787453 258.850125
" clip-path="url(#p90f30ba9d8)" style="fill: none; stroke: #b0b0b0; stroke-width: 0.8; stroke-linecap: square"/>
     </g>
     <g id="text_7">
      <!-- 90掳 -->
      <g transform="translate(359.924953 261.6095) scale(0.1 -0.1)">
       <use xlink:href="#DejaVuSans-39"/>
       <use xlink:href="#DejaVuSans-30" transform="translate(63.623047 0)"/>
       <use xlink:href="#DejaVuSans-b0" transform="translate(127.246094 0)"/>
      </g>
     </g>
    </g>
   </g>
   <g id="matplotlib.axis_2">
    <g id="ytick_1">
     <g id="line2d_8">
      <path d="M 205.099453 258.850125
C 205.099453 258.850125 205.099453 258.850125 205.099453 258.850125
C 205.099453 258.850125 205.099453 258.850125 205.099453 258.850125
C 205.099453 258.850125 205.099453 258.850125 205.099453 258.850125
C 205.099453 258.850125 205.099453 258.850125 205.099453 258.850125
" clip-path="url(#p90f30ba9d8)" style="fill: none; stroke: #b0b0b0; stroke-width: 0.8; stroke-linecap: square"/>
     </g>
     <g id="text_8">
      <!-- 0.0 -->
      <g transform="translate(197.147891 273.448562) scale(0.1 -0.1)">
       <defs>
        <path id="DejaVuSans-2e" d="M 684 794
L 1344 794
L 1344 0
L 684 0
L 684 794
z
" transform="scale(0.015625)"/>
       </defs>
       <use xlink:href="#DejaVuSans-30"/>
       <use xlink:href="#DejaVuSans-2e" transform="translate(63.623047 0)"/>
       <use xlink:href="#DejaVuSans-30" transform="translate(95.410156 0)"/>
      </g>
     </g>
    </g>
    <g id="ytick_2">
     <g id="line2d_9">
      <path d="M 177.379453 258.850125
C 177.379453 251.501143 180.301938 244.44564 185.498453 239.249125
C 190.694968 234.05261 197.750472 231.130125 205.099453 231.130125
C 212.448435 231.130125 219.503938 234.05261 224.700453 239.249125
C 229.896968 244.44564 232.819453 251.501143 232.819453 258.850125
" clip-path="url(#p90f30ba9d8)" style="fill: none; stroke: #b0b0b0; stroke-width: 0.8; stroke-linecap: square"/>
     </g>
     <g id="text_9">
      <!-- 0.2 -->
      <g transform="translate(169.427891 273.448562) scale(0.1 -0.1)">
       <defs>
        <path id="DejaVuSans-32" d="M 1228 531
L 3431 531
L 3431 0
L 469 0
L 469 531
Q 828 903 1448 1529
Q 2069 2156 2228 2338
Q 2531 2678 2651 2914
Q 2772 3150 2772 3378
Q 2772 3750 2511 3984
Q 2250 4219 1831 4219
Q 1534 4219 1204 4116
Q 875 4013 500 3803
L 500 4441
Q 881 4594 1212 4672
Q 1544 4750 1819 4750
Q 2544 4750 2975 4387
Q 3406 4025 3406 3419
Q 3406 3131 3298 2873
Q 3191 2616 2906 2266
Q 2828 2175 2409 1742
Q 1991 1309 1228 531
z
" transform="scale(0.015625)"/>
       </defs>
       <use xlink:href="#DejaVuSans-30"/>
       <use xlink:href="#DejaVuSans-2e" transform="translate(63.623047 0)"/>
       <use xlink:href="#DejaVuSans-32" transform="translate(95.410156 0)"/>
      </g>
     </g>
    </g>
    <g id="ytick_3">
     <g id="line2d_10">
      <path d="M 149.659453 258.850125
C 149.659453 244.152162 155.504424 230.041154 165.897453 219.648125
C 176.290483 209.255096 190.40149 203.410125 205.099453 203.410125
C 219.797416 203.410125 233.908424 209.255096 244.301453 219.648125
C 254.694482 230.041154 260.539453 244.152162 260.539453 258.850125
" clip-path="url(#p90f30ba9d8)" style="fill: none; stroke: #b0b0b0; stroke-width: 0.8; stroke-linecap: square"/>
     </g>
     <g id="text_10">
      <!-- 0.4 -->
      <g transform="translate(141.707891 273.448562) scale(0.1 -0.1)">
       <defs>
        <path id="DejaVuSans-34" d="M 2419 4116
L 825 1625
L 2419 1625
L 2419 4116
z
M 2253 4666
L 3047 4666
L 3047 1625
L 3713 1625
L 3713 1100
L 3047 1100
L 3047 0
L 2419 0
L 2419 1100
L 313 1100
L 313 1709
L 2253 4666
z
" transform="scale(0.015625)"/>
       </defs>
       <use xlink:href="#DejaVuSans-30"/>
       <use xlink:href="#DejaVuSans-2e" transform="translate(63.623047 0)"/>
       <use xlink:href="#DejaVuSans-34" transform="translate(95.410156 0)"/>
      </g>
     </g>
    </g>
    <g id="ytick_4">
     <g id="line2d_11">
      <path d="M 121.939453 258.850125
C 121.939453 236.80318 130.706909 215.636669 146.296453 200.047125
C 161.885997 184.457581 183.052509 175.690125 205.099453 175.690125
C 227.146398 175.690125 248.312909 184.457581 263.902453 200.047125
C 279.491997 215.636669 288.259453 236.80318 288.259453 258.850125
" clip-path="url(#p90f30ba9d8)" style="fill: none; stroke: #b0b0b0; stroke-width: 0.8; stroke-linecap: square"/>
     </g>
     <g id="text_11">
      <!-- 0.6 -->
      <g transform="translate(113.987891 273.448562) scale(0.1 -0.1)">
       <use xlink:href="#DejaVuSans-30"/>
       <use xlink:href="#DejaVuSans-2e" transform="translate(63.623047 0)"/>
       <use xlink:href="#DejaVuSans-36" transform="translate(95.410156 0)"/>
      </g>
     </g>
    </g>
    <g id="ytick_5">
     <g id="line2d_12">
      <path d="M 94.219453 258.850125
C 94.219453 229.454199 105.909395 201.232184 126.695453 180.446125
C 147.481512 159.660066 175.703527 147.970125 205.099453 147.970125
C 234.495379 147.970125 262.717394 159.660066 283.503453 180.446125
C 304.289512 201.232184 315.979453 229.454199 315.979453 258.850125
" clip-path="url(#p90f30ba9d8)" style="fill: none; stroke: #b0b0b0; stroke-width: 0.8; stroke-linecap: square"/>
     </g>
     <g id="text_12">
      <!-- 0.8 -->
      <g transform="translate(86.267891 273.448562) scale(0.1 -0.1)">
       <defs>
        <path id="DejaVuSans-38" d="M 2034 2216
Q 1584 2216 1326 1975
Q 1069 1734 1069 1313
Q 1069 891 1326 650
Q 1584 409 2034 409
Q 2484 409 2743 651
Q 3003 894 3003 1313
Q 3003 1734 2745 1975
Q 2488 2216 2034 2216
z
M 1403 2484
Q 997 2584 770 2862
Q 544 3141 544 3541
Q 544 4100 942 4425
Q 1341 4750 2034 4750
Q 2731 4750 3128 4425
Q 3525 4100 3525 3541
Q 3525 3141 3298 2862
Q 3072 2584 2669 2484
Q 3125 2378 3379 2068
Q 3634 1759 3634 1313
Q 3634 634 3220 271
Q 2806 -91 2034 -91
Q 1263 -91 848 271
Q 434 634 434 1313
Q 434 1759 690 2068
Q 947 2378 1403 2484
z
M 1172 3481
Q 1172 3119 1398 2916
Q 1625 2713 2034 2713
Q 2441 2713 2670 2916
Q 2900 3119 2900 3481
Q 2900 3844 2670 4047
Q 2441 4250 2034 4250
Q 1625 4250 1398 4047
Q 1172 3844 1172 3481
z
" transform="scale(0.015625)"/>
       </defs>
       <use xlink:href="#DejaVuSans-30"/>
       <use xlink:href="#DejaVuSans-2e" transform="translate(63.623047 0)"/>
       <use xlink:href="#DejaVuSans-38" transform="translate(95.410156 0)"/>
      </g>
     </g>
    </g>
    <g id="ytick_6">
     <g id="line2d_13">
      <path d="M 66.499453 258.850125
C 66.499453 222.105217 81.11188 186.827698 107.094453 160.845125
C 133.077027 134.862552 168.354546 120.250125 205.099453 120.250125
C 241.844361 120.250125 277.12188 134.862552 303.104453 160.845125
C 329.087026 186.827698 343.699453 222.105217 343.699453 258.850125
" clip-path="url(#p90f30ba9d8)" style="fill: none; stroke: #b0b0b0; stroke-width: 0.8; stroke-linecap: square"/>
     </g>
     <g id="text_13">
      <!-- 1.0 -->
      <g transform="translate(58.547891 273.448562) scale(0.1 -0.1)">
       <defs>
        <path id="DejaVuSans-31" d="M 794 531
L 1825 531
L 1825 4091
L 703 3866
L 703 4441
L 1819 4666
L 2450 4666
L 2450 531
L 3481 531
L 3481 0
L 794 0
L 794 531
z
" transform="scale(0.015625)"/>
       </defs>
       <use xlink:href="#DejaVuSans-31"/>
       <use xlink:href="#DejaVuSans-2e" transform="translate(63.623047 0)"/>
       <use xlink:href="#DejaVuSans-30" transform="translate(95.410156 0)"/>
      </g>
     </g>
    </g>
   </g>
   <g id="line2d_14">
    <path d="M 202.130376 258.850125
L 199.625422 258.300521
L 194.077806 256.611507
L 188.682859 254.806977
L 183.020546 252.669574
L 177.606308 250.411077
L 174.244093 248.815669
L 172.527725 247.798414
L 172.004019 247.279506
L 172.004883 247.056069
L 172.224244 246.914744
L 173.271935 246.570223
L 173.171844 246.328716
L 172.713863 245.945286
L 171.264213 245.051873
L 164.969255 241.629102
L 160.044284 238.84493
L 157.384995 237.104519
L 156.531346 236.292868
L 156.521377 236.008499
L 156.912761 235.916589
L 158.10433 236.08269
L 160.414971 236.698152
L 165.062836 238.221873
L 172.858095 240.832287
L 173.217598 240.776289
L 173.276513 240.554242
L 173.335933 240.249838
L 173.585744 240.228717
L 174.512303 240.533097
L 177.076919 241.772872
L 182.187598 244.585911
L 192.004802 250.252323
L 191.417671 249.7598
L 185.229478 244.976148
L 185.124438 244.798954
L 185.201763 244.801625
L 185.865615 245.120339
L 189.227548 247.024748
L 189.087107 246.836693
L 187.457999 245.384435
L 174.295691 234.046957
L 170.926959 230.884473
L 170.118574 229.945825
L 170.100473 229.83833
L 170.212606 229.838974
L 170.81775 230.160588
L 173.300163 231.900377
L 179.616103 236.572672
L 179.628971 236.515581
L 179.109097 235.920049
L 175.889988 232.765143
L 162.697429 219.948605
L 157.943349 215.071727
L 156.0184 212.880818
L 155.625775 212.240906
L 155.690038 212.165291
L 156.295289 212.467699
L 158.188026 213.876785
L 162.837234 217.745758
L 175.075464 228.120726
L 176.383886 228.964181
L 176.870476 229.061032
L 177.274746 228.9989
L 177.719507 229.233796
L 178.908309 230.208878
L 181.659852 232.867395
L 186.579908 237.985761
L 195.191186 247.260673
L 194.30823 246.092818
L 177.246482 224.589647
L 167.773983 212.207661
L 158.139477 199.237272
L 148.304175 185.610833
L 138.553871 171.682047
L 131.371239 161.00588
L 126.974738 154.085172
L 124.760787 150.271477
L 123.593749 147.83084
L 123.409694 146.999688
L 123.49255 146.822123
L 123.688898 146.800626
L 124.410044 147.21408
L 125.546828 148.213027
L 127.97302 150.747416
L 131.196918 154.455192
L 136.644564 161.139856
L 143.313506 169.736998
L 151.036785 180.060887
L 161.635912 194.678351
L 172.247603 209.710431
L 184.742916 227.840179
L 196.817234 245.520597
L 196.806389 245.397445
L 196.687606 244.91393
L 196.78968 244.973421
L 197.41193 245.806762
L 199.531336 249.121781
L 201.025381 251.459167
L 200.878615 251.088533
L 199.205528 247.209646
L 198.694545 245.950673
L 195.067977 237.528089
L 195.440967 238.142987
L 197.4942 242.25943
L 201.823074 251.512181
L 204.286605 256.963575
L 203.158055 254.191864
L 200.679642 247.706566
L 198.658608 241.87098
L 198.448335 241.030026
L 198.51109 241.082461
L 199.058938 242.289668
L 200.949638 247.125873
L 202.947982 252.29059
L 202.90548 252.015651
L 201.744014 248.008032
L 198.063403 235.062795
L 196.010972 227.154882
L 195.426328 224.165195
L 195.470995 224.046187
L 195.524765 224.100239
L 195.927152 225.013087
L 196.992608 228.190328
L 198.988314 234.939599
L 201.715902 245.018556
L 203.986402 253.97561
L 203.481034 251.52036
L 200.867144 238.498348
L 199.270656 229.469607
L 198.751216 225.425857
L 198.733025 223.774789
L 198.839766 223.546586
L 198.879857 223.56418
L 199.036827 223.830893
L 199.42516 225.054558
L 200.370976 229.023806
L 201.187415 232.262979
L 201.233475 232.201947
L 201.221673 231.338261
L 200.749968 225.563123
L 200.405262 220.197662
L 200.462491 219.679855
L 200.507979 219.726541
L 200.72626 220.588163
L 201.338012 224.404561
L 202.498553 233.370713
L 203.991492 246.798131
L 204.856019 255.636658
L 204.683079 252.605855
L 204.06525 239.911626
L 203.512116 224.017191
L 203.164053 207.301569
L 203.128228 196.333902
L 203.27714 190.142154
L 203.494238 187.560965
L 203.695502 186.902322
L 203.840488 186.95623
L 204.065241 187.568288
L 205.065632 191.241408
L 205.200993 191.190801
L 205.406065 190.748864
L 205.760895 189.262628
L 206.284074 187.100569
L 206.503405 186.902299
L 206.6404 187.230568
L 206.8222 188.590198
L 206.999817 192.231138
L 207.084916 199.645494
L 206.974055 211.452639
L 206.568714 227.968713
L 205.954688 244.008529
L 205.342887 255.63666
L 205.664796 252.265461
L 207.034059 239.112518
L 208.55028 226.648569
L 209.472646 220.588168
L 209.736414 219.679862
L 209.787295 219.922181
L 209.745619 221.536311
L 209.269059 227.674734
L 208.98403 232.262962
L 209.047778 232.203508
L 209.354678 231.101243
L 211.162078 223.8309
L 211.393564 223.561088
L 211.465881 223.774791
L 211.484374 224.855222
L 211.27779 227.028353
L 210.670109 231.06789
L 209.098501 239.718137
L 206.57896 252.181956
L 206.212504 253.975614
L 206.805437 251.618871
L 209.821257 239.969996
L 212.515385 230.446955
L 214.129018 225.402401
L 214.72791 224.046193
L 214.772577 224.165199
L 214.669203 224.944698
L 214.005362 227.913167
L 212.135504 235.062794
L 208.688076 247.21143
L 207.250924 252.29059
L 207.365645 252.109214
L 208.111134 250.166167
L 211.29166 241.929803
L 211.750568 241.030033
L 211.748513 241.093457
L 211.44534 242.175147
L 209.842763 246.815439
L 207.192519 253.812579
L 205.912301 256.963575
L 206.951771 254.652304
L 211.754017 244.248617
L 214.935656 237.822619
L 215.130933 237.528081
L 215.117537 237.678287
L 214.334885 239.608837
L 209.173525 251.459168
L 209.465308 251.056911
L 213.491204 244.910441
L 213.516398 244.978922
L 213.381671 245.520599
L 213.529245 245.38955
L 214.470149 244.081994
L 222.706158 231.888767
L 233.994334 215.40346
L 246.400519 197.712218
L 257.101672 182.866339
L 265.043717 172.168144
L 271.997156 163.113983
L 277.760093 155.942348
L 282.225885 150.747417
L 284.652078 148.213027
L 286.203098 146.932374
L 286.706357 146.822123
L 286.789213 146.999687
L 286.605158 147.830839
L 285.945999 149.300309
L 284.073998 152.669408
L 281.212669 157.312941
L 276.12987 165.07634
L 268.46203 176.283668
L 258.593708 190.22749
L 248.831439 203.625278
L 239.239437 216.411928
L 229.907873 228.495023
L 219.590711 241.48987
L 215.007722 247.260671
L 215.272817 247.013897
L 220.055235 241.818465
L 227.050011 234.385918
L 230.858073 230.605113
L 232.4794 229.233794
L 233.016931 228.981436
L 233.815017 228.964184
L 234.578685 228.509168
L 236.611337 226.957811
L 240.885724 223.341482
L 251.183454 214.542087
L 253.903609 212.467706
L 254.508865 212.165295
L 254.57313 212.240907
L 254.180509 212.880816
L 252.255564 215.071721
L 247.501486 219.948597
L 239.790182 227.494786
L 230.56993 236.515585
L 230.582798 236.572676
L 231.105048 236.255487
L 235.276661 233.114476
L 239.381164 230.160581
L 240.098445 229.83832
L 239.933391 230.159279
L 238.772725 231.381814
L 235.029802 234.82891
L 227.62023 241.248085
L 220.97136 247.024747
L 221.118753 246.998346
L 222.493557 246.207481
L 224.997151 244.80162
L 225.074477 244.798948
L 225.06666 244.856351
L 224.504079 245.401971
L 222.04791 247.3246
L 218.194111 250.252319
L 218.451908 250.152746
L 221.4838 248.391999
L 230.238482 243.331502
L 234.603355 241.025818
L 236.388329 240.27859
L 236.862973 240.249838
L 236.929399 240.465251
L 236.981304 240.776292
L 237.177417 240.837323
L 237.811452 240.745603
L 239.787288 240.121954
L 249.783927 236.698156
L 252.559507 235.992089
L 253.52827 235.939828
L 253.726074 236.125483
L 253.497338 236.511882
L 252.813902 237.104523
L 250.964455 238.350207
L 247.311268 240.483119
L 237.207345 246.156738
L 236.926964 246.570226
L 237.099674 246.70901
L 238.194017 247.056071
L 238.194881 247.279508
L 237.920291 247.600325
L 236.950316 248.265794
L 234.730129 249.427641
L 231.056144 251.078164
L 224.961208 253.532887
L 219.588693 255.479116
L 213.806069 257.324492
L 209.043086 258.673584
L 208.06853 258.850125
L 208.06853 258.850125
" clip-path="url(#p90f30ba9d8)" style="fill: none; stroke: #1f77b4; stroke-width: 2; stroke-linecap: square"/>
   </g>
   <g id="line2d_15">
    <defs>
     <path id="m7abce50897" d="M 0 2.5
C 0.663008 2.5 1.29895 2.236584 1.767767 1.767767
C 2.236584 1.29895 2.5 0.663008 2.5 0
C 2.5 -0.663008 2.236584 -1.29895 1.767767 -1.767767
C 1.29895 -2.236584 0.663008 -2.5 0 -2.5
C -0.663008 -2.5 -1.29895 -2.236584 -1.767767 -1.767767
C -2.236584 -1.29895 -2.5 -0.663008 -2.5 0
C -2.5 0.663008 -2.236584 1.29895 -1.767767 1.767767
C -1.29895 2.236584 -0.663008 2.5 0 2.5
z
" style="stroke: #d62728"/>
    </defs>
    <g clip-path="url(#p90f30ba9d8)">
     <use xlink:href="#m7abce50897" x="123.49255" y="146.822123" style="fill: #d62728; stroke: #d62728"/>
    </g>
   </g>
   <g id="line2d_16">
    <path d="M 162.04789 204.544942
L 162.1194 204.488328
L 162.190984 204.431807
L 162.262643 204.375381
L 162.334376 204.31905
L 162.406183 204.262812
L 162.478064 204.20667
L 162.550019 204.150622
L 162.622048 204.094668
L 162.69415 204.03881
L 162.766326 203.983046
L 162.838575 203.927378
L 162.910897 203.871805
L 162.983292 203.816327
L 163.05576 203.760944
L 163.128301 203.705656
L 163.200915 203.650465
L 163.273601 203.595368
L 163.34636 203.540368
L 163.419191 203.485463
L 163.492094 203.430655
L 163.56507 203.375942
L 163.638117 203.321325
L 163.711236 203.266805
L 163.784427 203.21238
L 163.857689 203.158053
L 163.931023 203.103821
L 164.004428 203.049686
L 164.077905 202.995648
L 164.151452 202.941707
L 164.22507 202.887862
L 164.29876 202.834115
L 164.372519 202.780464
L 164.44635 202.726911
L 164.52025 202.673455
L 164.594221 202.620096
L 164.668263 202.566834
L 164.742374 202.51367
L 164.816555 202.460604
L 164.890806 202.407635
L 164.965127 202.354764
L 165.039517 202.301991
L 165.113976 202.249316
L 165.188505 202.196738
L 165.263103 202.144259
L 165.33777 202.091879
L 165.412505 202.039596
L 165.48731 201.987412
L 165.562183 201.935327
L 165.637125 201.88334
L 165.712135 201.831451
L 165.787213 201.779662
L 165.862359 201.727971
L 165.937573 201.676379
L 166.012856 201.624887
L 166.088205 201.573493
L 166.163623 201.522199
L 166.239108 201.471004
L 166.31466 201.419908
L 166.390279 201.368912
" clip-path="url(#p90f30ba9d8)" style="fill: none; stroke: #d62728; stroke-opacity: 0.8; stroke-width: 3; stroke-linecap: square"/>
   </g>
   <g id="line2d_17">
    <g clip-path="url(#p90f30ba9d8)">
     <use xlink:href="#m7abce50897" x="286.706357" y="146.822123" style="fill: #d62728; stroke: #d62728"/>
    </g>
   </g>
   <g id="line2d_18">
    <path d="M 243.808627 201.368912
L 243.884247 201.419908
L 243.959799 201.471004
L 244.035284 201.522199
L 244.110701 201.573493
L 244.186051 201.624887
L 244.261333 201.67638
L 244.336547 201.727971
L 244.411693 201.779662
L 244.486772 201.831451
L 244.561782 201.88334
L 244.636723 201.935327
L 244.711596 201.987412
L 244.786401 202.039596
L 244.861137 202.091879
L 244.935804 202.144259
L 245.010401 202.196738
L 245.08493 202.249316
L 245.15939 202.301991
L 245.23378 202.354764
L 245.3081 202.407635
L 245.382351 202.460604
L 245.456532 202.51367
L 245.530644 202.566834
L 245.604685 202.620096
L 245.678656 202.673455
L 245.752557 202.726911
L 245.826387 202.780464
L 245.900147 202.834115
L 245.973836 202.887862
L 246.047454 202.941707
L 246.121002 202.995648
L 246.194478 203.049687
L 246.267883 203.103821
L 246.341217 203.158053
L 246.414479 203.212381
L 246.48767 203.266805
L 246.560789 203.321325
L 246.633837 203.375942
L 246.706812 203.430655
L 246.779715 203.485463
L 246.852546 203.540368
L 246.925305 203.595369
L 246.997991 203.650465
L 247.070605 203.705657
L 247.143146 203.760944
L 247.215614 203.816327
L 247.28801 203.871805
L 247.360332 203.927378
L 247.432581 203.983046
L 247.504756 204.03881
L 247.576859 204.094668
L 247.648887 204.150622
L 247.720842 204.20667
L 247.792723 204.262812
L 247.86453 204.31905
L 247.936263 204.375381
L 248.007922 204.431807
L 248.079507 204.488328
L 248.151017 204.544942
" clip-path="url(#p90f30ba9d8)" style="fill: none; stroke: #d62728; stroke-opacity: 0.8; stroke-width: 3; stroke-linecap: square"/>
   </g>
   <g id="patch_3">
    <path d="M 354.787453 258.850125
C 354.787453 219.165625 339.006032 181.065904 310.944853 153.004725
C 282.883674 124.943546 244.783953 109.162125 205.099453 109.162125
C 165.414953 109.162125 127.315232 124.943546 99.254053 153.004725
C 71.192874 181.065904 55.411453 219.165625 55.411453 258.850125
" style="fill: none; stroke: #000000; stroke-width: 0.8; stroke-linejoin: miter; stroke-linecap: square"/>
   </g>
   <g id="patch_4">
    <path d="M 205.099453 258.850125
L 55.411453 258.850125
" style="fill: none; stroke: #000000; stroke-width: 0.8; stroke-linejoin: miter; stroke-linecap: square"/>
   </g>
   <g id="patch_5">
    <path d="M 205.099453 258.850125
L 354.787453 258.850125
" style="fill: none; stroke: #000000; stroke-width: 0.8; stroke-linejoin: miter; stroke-linecap: square"/>
   </g>
   <g id="text_14">
    <!-- -36.1 deg -->
    <g transform="translate(88.879742 128.897642) scale(0.09 -0.09)">
     <defs>
      <path id="DejaVuSans-20" transform="scale(0.015625)"/>
      <path id="DejaVuSans-64" d="M 2906 2969
L 2906 4863
L 3481 4863
L 3481 0
L 2906 0
L 2906 525
Q 2725 213 2448 61
Q 2172 -91 1784 -91
Q 1150 -91 751 415
Q 353 922 353 1747
Q 353 2572 751 3078
Q 1150 3584 1784 3584
Q 2172 3584 2448 3432
Q 2725 3281 2906 2969
z
M 947 1747
Q 947 1113 1208 752
Q 1469 391 1925 391
Q 2381 391 2643 752
Q 2906 1113 2906 1747
Q 2906 2381 2643 2742
Q 2381 3103 1925 3103
Q 1469 3103 1208 2742
Q 947 2381 947 1747
z
" transform="scale(0.015625)"/>
      <path id="DejaVuSans-65" d="M 3597 1894
L 3597 1613
L 953 1613
Q 991 1019 1311 708
Q 1631 397 2203 397
Q 2534 397 2845 478
Q 3156 559 3463 722
L 3463 178
Q 3153 47 2828 -22
Q 2503 -91 2169 -91
Q 1331 -91 842 396
Q 353 884 353 1716
Q 353 2575 817 3079
Q 1281 3584 2069 3584
Q 2775 3584 3186 3129
Q 3597 2675 3597 1894
z
M 3022 2063
Q 3016 2534 2758 2815
Q 2500 3097 2075 3097
Q 1594 3097 1305 2825
Q 1016 2553 972 2059
L 3022 2063
z
" transform="scale(0.015625)"/>
      <path id="DejaVuSans-67" d="M 2906 1791
Q 2906 2416 2648 2759
Q 2391 3103 1925 3103
Q 1463 3103 1205 2759
Q 947 2416 947 1791
Q 947 1169 1205 825
Q 1463 481 1925 481
Q 2391 481 2648 825
Q 2906 1169 2906 1791
z
M 3481 434
Q 3481 -459 3084 -895
Q 2688 -1331 1869 -1331
Q 1566 -1331 1297 -1286
Q 1028 -1241 775 -1147
L 775 -588
Q 1028 -725 1275 -790
Q 1522 -856 1778 -856
Q 2344 -856 2625 -561
Q 2906 -266 2906 331
L 2906 616
Q 2728 306 2450 153
Q 2172 0 1784 0
Q 1141 0 747 490
Q 353 981 353 1791
Q 353 2603 747 3093
Q 1141 3584 1784 3584
Q 2172 3584 2450 3431
Q 2728 3278 2906 2969
L 2906 3500
L 3481 3500
L 3481 434
z
" transform="scale(0.015625)"/>
     </defs>
     <use xlink:href="#DejaVuSans-2d"/>
     <use xlink:href="#DejaVuSans-33" transform="translate(36.083984 0)"/>
     <use xlink:href="#DejaVuSans-36" transform="translate(99.707031 0)"/>
     <use xlink:href="#DejaVuSans-2e" transform="translate(163.330078 0)"/>
     <use xlink:href="#DejaVuSans-31" transform="translate(195.117188 0)"/>
     <use xlink:href="#DejaVuSans-20" transform="translate(258.740234 0)"/>
     <use xlink:href="#DejaVuSans-64" transform="translate(290.527344 0)"/>
     <use xlink:href="#DejaVuSans-65" transform="translate(354.003906 0)"/>
     <use xlink:href="#DejaVuSans-67" transform="translate(415.527344 0)"/>
    </g>
   </g>
   <g id="text_15">
    <!-- +36.1 deg -->
    <g transform="translate(276.060414 128.897642) scale(0.09 -0.09)">
     <defs>
      <path id="DejaVuSans-2b" d="M 2944 4013
L 2944 2272
L 4684 2272
L 4684 1741
L 2944 1741
L 2944 0
L 2419 0
L 2419 1741
L 678 1741
L 678 2272
L 2419 2272
L 2419 4013
L 2944 4013
z
" transform="scale(0.015625)"/>
     </defs>
     <use xlink:href="#DejaVuSans-2b"/>
     <use xlink:href="#DejaVuSans-33" transform="translate(83.789062 0)"/>
     <use xlink:href="#DejaVuSans-36" transform="translate(147.412109 0)"/>
     <use xlink:href="#DejaVuSans-2e" transform="translate(211.035156 0)"/>
     <use xlink:href="#DejaVuSans-31" transform="translate(242.822266 0)"/>
     <use xlink:href="#DejaVuSans-20" transform="translate(306.445312 0)"/>
     <use xlink:href="#DejaVuSans-64" transform="translate(338.232422 0)"/>
     <use xlink:href="#DejaVuSans-65" transform="translate(401.708984 0)"/>
     <use xlink:href="#DejaVuSans-67" transform="translate(463.232422 0)"/>
    </g>
   </g>
   <g id="text_16">
    <!-- Peaks near +/-36.072 deg; FWHM ~4.449 deg; symmetric off-axis double-lobe emission -->
    <g transform="translate(7.2 379.451599) scale(0.09 -0.09)">
     <defs>
      <path id="DejaVuSans-50" d="M 1259 4147
L 1259 2394
L 2053 2394
Q 2494 2394 2734 2622
Q 2975 2850 2975 3272
Q 2975 3691 2734 3919
Q 2494 4147 2053 4147
L 1259 4147
z
M 628 4666
L 2053 4666
Q 2838 4666 3239 4311
Q 3641 3956 3641 3272
Q 3641 2581 3239 2228
Q 2838 1875 2053 1875
L 1259 1875
L 1259 0
L 628 0
L 628 4666
z
" transform="scale(0.015625)"/>
      <path id="DejaVuSans-61" d="M 2194 1759
Q 1497 1759 1228 1600
Q 959 1441 959 1056
Q 959 750 1161 570
Q 1363 391 1709 391
Q 2188 391 2477 730
Q 2766 1069 2766 1631
L 2766 1759
L 2194 1759
z
M 3341 1997
L 3341 0
L 2766 0
L 2766 531
Q 2569 213 2275 61
Q 1981 -91 1556 -91
Q 1019 -91 701 211
Q 384 513 384 1019
Q 384 1609 779 1909
Q 1175 2209 1959 2209
L 2766 2209
L 2766 2266
Q 2766 2663 2505 2880
Q 2244 3097 1772 3097
Q 1472 3097 1187 3025
Q 903 2953 641 2809
L 641 3341
Q 956 3463 1253 3523
Q 1550 3584 1831 3584
Q 2591 3584 2966 3190
Q 3341 2797 3341 1997
z
" transform="scale(0.015625)"/>
      <path id="DejaVuSans-6b" d="M 581 4863
L 1159 4863
L 1159 1991
L 2875 3500
L 3609 3500
L 1753 1863
L 3688 0
L 2938 0
L 1159 1709
L 1159 0
L 581 0
L 581 4863
z
" transform="scale(0.015625)"/>
      <path id="DejaVuSans-73" d="M 2834 3397
L 2834 2853
Q 2591 2978 2328 3040
Q 2066 3103 1784 3103
Q 1356 3103 1142 2972
Q 928 2841 928 2578
Q 928 2378 1081 2264
Q 1234 2150 1697 2047
L 1894 2003
Q 2506 1872 2764 1633
Q 3022 1394 3022 966
Q 3022 478 2636 193
Q 2250 -91 1575 -91
Q 1294 -91 989 -36
Q 684 19 347 128
L 347 722
Q 666 556 975 473
Q 1284 391 1588 391
Q 1994 391 2212 530
Q 2431 669 2431 922
Q 2431 1156 2273 1281
Q 2116 1406 1581 1522
L 1381 1569
Q 847 1681 609 1914
Q 372 2147 372 2553
Q 372 3047 722 3315
Q 1072 3584 1716 3584
Q 2034 3584 2315 3537
Q 2597 3491 2834 3397
z
" transform="scale(0.015625)"/>
      <path id="DejaVuSans-6e" d="M 3513 2113
L 3513 0
L 2938 0
L 2938 2094
Q 2938 2591 2744 2837
Q 2550 3084 2163 3084
Q 1697 3084 1428 2787
Q 1159 2491 1159 1978
L 1159 0
L 581 0
L 581 3500
L 1159 3500
L 1159 2956
Q 1366 3272 1645 3428
Q 1925 3584 2291 3584
Q 2894 3584 3203 3211
Q 3513 2838 3513 2113
z
" transform="scale(0.015625)"/>
      <path id="DejaVuSans-72" d="M 2631 2963
Q 2534 3019 2420 3045
Q 2306 3072 2169 3072
Q 1681 3072 1420 2755
Q 1159 2438 1159 1844
L 1159 0
L 581 0
L 581 3500
L 1159 3500
L 1159 2956
Q 1341 3275 1631 3429
Q 1922 3584 2338 3584
Q 2397 3584 2469 3576
Q 2541 3569 2628 3553
L 2631 2963
z
" transform="scale(0.015625)"/>
      <path id="DejaVuSans-2f" d="M 1625 4666
L 2156 4666
L 531 -594
L 0 -594
L 1625 4666
z
" transform="scale(0.015625)"/>
      <path id="DejaVuSans-37" d="M 525 4666
L 3525 4666
L 3525 4397
L 1831 0
L 1172 0
L 2766 4134
L 525 4134
L 525 4666
z
" transform="scale(0.015625)"/>
      <path id="DejaVuSans-3b" d="M 750 3309
L 1409 3309
L 1409 2516
L 750 2516
L 750 3309
z
M 750 794
L 1409 794
L 1409 256
L 897 -744
L 494 -744
L 750 256
L 750 794
z
" transform="scale(0.015625)"/>
      <path id="DejaVuSans-46" d="M 628 4666
L 3309 4666
L 3309 4134
L 1259 4134
L 1259 2759
L 3109 2759
L 3109 2228
L 1259 2228
L 1259 0
L 628 0
L 628 4666
z
" transform="scale(0.015625)"/>
      <path id="DejaVuSans-57" d="M 213 4666
L 850 4666
L 1831 722
L 2809 4666
L 3519 4666
L 4500 722
L 5478 4666
L 6119 4666
L 4947 0
L 4153 0
L 3169 4050
L 2175 0
L 1381 0
L 213 4666
z
" transform="scale(0.015625)"/>
      <path id="DejaVuSans-48" d="M 628 4666
L 1259 4666
L 1259 2753
L 3553 2753
L 3553 4666
L 4184 4666
L 4184 0
L 3553 0
L 3553 2222
L 1259 2222
L 1259 0
L 628 0
L 628 4666
z
" transform="scale(0.015625)"/>
      <path id="DejaVuSans-4d" d="M 628 4666
L 1569 4666
L 2759 1491
L 3956 4666
L 4897 4666
L 4897 0
L 4281 0
L 4281 4097
L 3078 897
L 2444 897
L 1241 4097
L 1241 0
L 628 0
L 628 4666
z
" transform="scale(0.015625)"/>
      <path id="DejaVuSans-7e" d="M 4684 2553
L 4684 1997
Q 4356 1750 4076 1644
Q 3797 1538 3494 1538
Q 3150 1538 2694 1722
Q 2659 1734 2644 1741
Q 2622 1750 2575 1766
Q 2091 1959 1797 1959
Q 1522 1959 1253 1839
Q 984 1719 678 1459
L 678 2016
Q 1006 2263 1286 2370
Q 1566 2478 1869 2478
Q 2213 2478 2672 2291
Q 2703 2278 2719 2272
Q 2744 2263 2788 2247
Q 3272 2053 3566 2053
Q 3834 2053 4098 2172
Q 4363 2291 4684 2553
z
" transform="scale(0.015625)"/>
      <path id="DejaVuSans-79" d="M 2059 -325
Q 1816 -950 1584 -1140
Q 1353 -1331 966 -1331
L 506 -1331
L 506 -850
L 844 -850
Q 1081 -850 1212 -737
Q 1344 -625 1503 -206
L 1606 56
L 191 3500
L 800 3500
L 1894 763
L 2988 3500
L 3597 3500
L 2059 -325
z
" transform="scale(0.015625)"/>
      <path id="DejaVuSans-6d" d="M 3328 2828
Q 3544 3216 3844 3400
Q 4144 3584 4550 3584
Q 5097 3584 5394 3201
Q 5691 2819 5691 2113
L 5691 0
L 5113 0
L 5113 2094
Q 5113 2597 4934 2840
Q 4756 3084 4391 3084
Q 3944 3084 3684 2787
Q 3425 2491 3425 1978
L 3425 0
L 2847 0
L 2847 2094
Q 2847 2600 2669 2842
Q 2491 3084 2119 3084
Q 1678 3084 1418 2786
Q 1159 2488 1159 1978
L 1159 0
L 581 0
L 581 3500
L 1159 3500
L 1159 2956
Q 1356 3278 1631 3431
Q 1906 3584 2284 3584
Q 2666 3584 2933 3390
Q 3200 3197 3328 2828
z
" transform="scale(0.015625)"/>
      <path id="DejaVuSans-74" d="M 1172 4494
L 1172 3500
L 2356 3500
L 2356 3053
L 1172 3053
L 1172 1153
Q 1172 725 1289 603
Q 1406 481 1766 481
L 2356 481
L 2356 0
L 1766 0
Q 1100 0 847 248
Q 594 497 594 1153
L 594 3053
L 172 3053
L 172 3500
L 594 3500
L 594 4494
L 1172 4494
z
" transform="scale(0.015625)"/>
      <path id="DejaVuSans-69" d="M 603 3500
L 1178 3500
L 1178 0
L 603 0
L 603 3500
z
M 603 4863
L 1178 4863
L 1178 4134
L 603 4134
L 603 4863
z
" transform="scale(0.015625)"/>
      <path id="DejaVuSans-63" d="M 3122 3366
L 3122 2828
Q 2878 2963 2633 3030
Q 2388 3097 2138 3097
Q 1578 3097 1268 2742
Q 959 2388 959 1747
Q 959 1106 1268 751
Q 1578 397 2138 397
Q 2388 397 2633 464
Q 2878 531 3122 666
L 3122 134
Q 2881 22 2623 -34
Q 2366 -91 2075 -91
Q 1284 -91 818 406
Q 353 903 353 1747
Q 353 2603 823 3093
Q 1294 3584 2113 3584
Q 2378 3584 2631 3529
Q 2884 3475 3122 3366
z
" transform="scale(0.015625)"/>
      <path id="DejaVuSans-6f" d="M 1959 3097
Q 1497 3097 1228 2736
Q 959 2375 959 1747
Q 959 1119 1226 758
Q 1494 397 1959 397
Q 2419 397 2687 759
Q 2956 1122 2956 1747
Q 2956 2369 2687 2733
Q 2419 3097 1959 3097
z
M 1959 3584
Q 2709 3584 3137 3096
Q 3566 2609 3566 1747
Q 3566 888 3137 398
Q 2709 -91 1959 -91
Q 1206 -91 779 398
Q 353 888 353 1747
Q 353 2609 779 3096
Q 1206 3584 1959 3584
z
" transform="scale(0.015625)"/>
      <path id="DejaVuSans-66" d="M 2375 4863
L 2375 4384
L 1825 4384
Q 1516 4384 1395 4259
Q 1275 4134 1275 3809
L 1275 3500
L 2222 3500
L 2222 3053
L 1275 3053
L 1275 0
L 697 0
L 697 3053
L 147 3053
L 147 3500
L 697 3500
L 697 3744
Q 697 4328 969 4595
Q 1241 4863 1831 4863
L 2375 4863
z
" transform="scale(0.015625)"/>
      <path id="DejaVuSans-78" d="M 3513 3500
L 2247 1797
L 3578 0
L 2900 0
L 1881 1375
L 863 0
L 184 0
L 1544 1831
L 300 3500
L 978 3500
L 1906 2253
L 2834 3500
L 3513 3500
z
" transform="scale(0.015625)"/>
      <path id="DejaVuSans-75" d="M 544 1381
L 544 3500
L 1119 3500
L 1119 1403
Q 1119 906 1312 657
Q 1506 409 1894 409
Q 2359 409 2629 706
Q 2900 1003 2900 1516
L 2900 3500
L 3475 3500
L 3475 0
L 2900 0
L 2900 538
Q 2691 219 2414 64
Q 2138 -91 1772 -91
Q 1169 -91 856 284
Q 544 659 544 1381
z
M 1991 3584
L 1991 3584
z
" transform="scale(0.015625)"/>
      <path id="DejaVuSans-62" d="M 3116 1747
Q 3116 2381 2855 2742
Q 2594 3103 2138 3103
Q 1681 3103 1420 2742
Q 1159 2381 1159 1747
Q 1159 1113 1420 752
Q 1681 391 2138 391
Q 2594 391 2855 752
Q 3116 1113 3116 1747
z
M 1159 2969
Q 1341 3281 1617 3432
Q 1894 3584 2278 3584
Q 2916 3584 3314 3078
Q 3713 2572 3713 1747
Q 3713 922 3314 415
Q 2916 -91 2278 -91
Q 1894 -91 1617 61
Q 1341 213 1159 525
L 1159 0
L 581 0
L 581 4863
L 1159 4863
L 1159 2969
z
" transform="scale(0.015625)"/>
      <path id="DejaVuSans-6c" d="M 603 4863
L 1178 4863
L 1178 0
L 603 0
L 603 4863
z
" transform="scale(0.015625)"/>
     </defs>
     <use xlink:href="#DejaVuSans-50"/>
     <use xlink:href="#DejaVuSans-65" transform="translate(56.677734 0)"/>
     <use xlink:href="#DejaVuSans-61" transform="translate(118.201172 0)"/>
     <use xlink:href="#DejaVuSans-6b" transform="translate(179.480469 0)"/>
     <use xlink:href="#DejaVuSans-73" transform="translate(237.390625 0)"/>
     <use xlink:href="#DejaVuSans-20" transform="translate(289.490234 0)"/>
     <use xlink:href="#DejaVuSans-6e" transform="translate(321.277344 0)"/>
     <use xlink:href="#DejaVuSans-65" transform="translate(384.65625 0)"/>
     <use xlink:href="#DejaVuSans-61" transform="translate(446.179688 0)"/>
     <use xlink:href="#DejaVuSans-72" transform="translate(507.458984 0)"/>
     <use xlink:href="#DejaVuSans-20" transform="translate(548.572266 0)"/>
     <use xlink:href="#DejaVuSans-2b" transform="translate(580.359375 0)"/>
     <use xlink:href="#DejaVuSans-2f" transform="translate(664.148438 0)"/>
     <use xlink:href="#DejaVuSans-2d" transform="translate(697.839844 0)"/>
     <use xlink:href="#DejaVuSans-33" transform="translate(733.923828 0)"/>
     <use xlink:href="#DejaVuSans-36" transform="translate(797.546875 0)"/>
     <use xlink:href="#DejaVuSans-2e" transform="translate(861.169922 0)"/>
     <use xlink:href="#DejaVuSans-30" transform="translate(892.957031 0)"/>
     <use xlink:href="#DejaVuSans-37" transform="translate(956.580078 0)"/>
     <use xlink:href="#DejaVuSans-32" transform="translate(1020.203125 0)"/>
     <use xlink:href="#DejaVuSans-20" transform="translate(1083.826172 0)"/>
     <use xlink:href="#DejaVuSans-64" transform="translate(1115.613281 0)"/>
     <use xlink:href="#DejaVuSans-65" transform="translate(1179.089844 0)"/>
     <use xlink:href="#DejaVuSans-67" transform="translate(1240.613281 0)"/>
     <use xlink:href="#DejaVuSans-3b" transform="translate(1304.089844 0)"/>
     <use xlink:href="#DejaVuSans-20" transform="translate(1337.78125 0)"/>
     <use xlink:href="#DejaVuSans-46" transform="translate(1369.568359 0)"/>
     <use xlink:href="#DejaVuSans-57" transform="translate(1427.087891 0)"/>
     <use xlink:href="#DejaVuSans-48" transform="translate(1525.964844 0)"/>
     <use xlink:href="#DejaVuSans-4d" transform="translate(1601.160156 0)"/>
     <use xlink:href="#DejaVuSans-20" transform="translate(1687.439453 0)"/>
     <use xlink:href="#DejaVuSans-7e" transform="translate(1719.226562 0)"/>
     <use xlink:href="#DejaVuSans-34" transform="translate(1803.015625 0)"/>
     <use xlink:href="#DejaVuSans-2e" transform="translate(1866.638672 0)"/>
     <use xlink:href="#DejaVuSans-34" transform="translate(1898.425781 0)"/>
     <use xlink:href="#DejaVuSans-34" transform="translate(1962.048828 0)"/>
     <use xlink:href="#DejaVuSans-39" transform="translate(2025.671875 0)"/>
     <use xlink:href="#DejaVuSans-20" transform="translate(2089.294922 0)"/>
     <use xlink:href="#DejaVuSans-64" transform="translate(2121.082031 0)"/>
     <use xlink:href="#DejaVuSans-65" transform="translate(2184.558594 0)"/>
     <use xlink:href="#DejaVuSans-67" transform="translate(2246.082031 0)"/>
     <use xlink:href="#DejaVuSans-3b" transform="translate(2309.558594 0)"/>
     <use xlink:href="#DejaVuSans-20" transform="translate(2343.25 0)"/>
     <use xlink:href="#DejaVuSans-73" transform="translate(2375.037109 0)"/>
     <use xlink:href="#DejaVuSans-79" transform="translate(2427.136719 0)"/>
     <use xlink:href="#DejaVuSans-6d" transform="translate(2486.316406 0)"/>
     <use xlink:href="#DejaVuSans-6d" transform="translate(2583.728516 0)"/>
     <use xlink:href="#DejaVuSans-65" transform="translate(2681.140625 0)"/>
     <use xlink:href="#DejaVuSans-74" transform="translate(2742.664062 0)"/>
     <use xlink:href="#DejaVuSans-72" transform="translate(2781.873047 0)"/>
     <use xlink:href="#DejaVuSans-69" transform="translate(2822.986328 0)"/>
     <use xlink:href="#DejaVuSans-63" transform="translate(2850.769531 0)"/>
     <use xlink:href="#DejaVuSans-20" transform="translate(2905.75 0)"/>
     <use xlink:href="#DejaVuSans-6f" transform="translate(2937.537109 0)"/>
     <use xlink:href="#DejaVuSans-66" transform="translate(2998.71875 0)"/>
     <use xlink:href="#DejaVuSans-66" transform="translate(3033.923828 0)"/>
     <use xlink:href="#DejaVuSans-2d" transform="translate(3063.628906 0)"/>
     <use xlink:href="#DejaVuSans-61" transform="translate(3099.712891 0)"/>
     <use xlink:href="#DejaVuSans-78" transform="translate(3160.992188 0)"/>
     <use xlink:href="#DejaVuSans-69" transform="translate(3220.171875 0)"/>
     <use xlink:href="#DejaVuSans-73" transform="translate(3247.955078 0)"/>
     <use xlink:href="#DejaVuSans-20" transform="translate(3300.054688 0)"/>
     <use xlink:href="#DejaVuSans-64" transform="translate(3331.841797 0)"/>
     <use xlink:href="#DejaVuSans-6f" transform="translate(3395.318359 0)"/>
     <use xlink:href="#DejaVuSans-75" transform="translate(3456.5 0)"/>
     <use xlink:href="#DejaVuSans-62" transform="translate(3519.878906 0)"/>
     <use xlink:href="#DejaVuSans-6c" transform="translate(3583.355469 0)"/>
     <use xlink:href="#DejaVuSans-65" transform="translate(3611.138672 0)"/>
     <use xlink:href="#DejaVuSans-2d" transform="translate(3672.662109 0)"/>
     <use xlink:href="#DejaVuSans-6c" transform="translate(3708.746094 0)"/>
     <use xlink:href="#DejaVuSans-6f" transform="translate(3736.529297 0)"/>
     <use xlink:href="#DejaVuSans-62" transform="translate(3797.710938 0)"/>
     <use xlink:href="#DejaVuSans-65" transform="translate(3861.1875 0)"/>
     <use xlink:href="#DejaVuSans-20" transform="translate(3922.710938 0)"/>
     <use xlink:href="#DejaVuSans-65" transform="translate(3954.498047 0)"/>
     <use xlink:href="#DejaVuSans-6d" transform="translate(4016.021484 0)"/>
     <use xlink:href="#DejaVuSans-69" transform="translate(4113.433594 0)"/>
     <use xlink:href="#DejaVuSans-73" transform="translate(4141.216797 0)"/>
     <use xlink:href="#DejaVuSans-73" transform="translate(4193.316406 0)"/>
     <use xlink:href="#DejaVuSans-69" transform="translate(4245.416016 0)"/>
     <use xlink:href="#DejaVuSans-6f" transform="translate(4273.199219 0)"/>
     <use xlink:href="#DejaVuSans-6e" transform="translate(4334.380859 0)"/>
    </g>
   </g>
   <g id="text_17">
    <!-- R2-2D 453 nm symmetric off-axis double-lobe -->
    <g transform="translate(66.829453 16.318125) scale(0.12 -0.12)">
     <defs>
      <path id="DejaVuSans-52" d="M 2841 2188
Q 3044 2119 3236 1894
Q 3428 1669 3622 1275
L 4263 0
L 3584 0
L 2988 1197
Q 2756 1666 2539 1819
Q 2322 1972 1947 1972
L 1259 1972
L 1259 0
L 628 0
L 628 4666
L 2053 4666
Q 2853 4666 3247 4331
Q 3641 3997 3641 3322
Q 3641 2881 3436 2590
Q 3231 2300 2841 2188
z
M 1259 4147
L 1259 2491
L 2053 2491
Q 2509 2491 2742 2702
Q 2975 2913 2975 3322
Q 2975 3731 2742 3939
Q 2509 4147 2053 4147
L 1259 4147
z
" transform="scale(0.015625)"/>
      <path id="DejaVuSans-44" d="M 1259 4147
L 1259 519
L 2022 519
Q 2988 519 3436 956
Q 3884 1394 3884 2338
Q 3884 3275 3436 3711
Q 2988 4147 2022 4147
L 1259 4147
z
M 628 4666
L 1925 4666
Q 3281 4666 3915 4102
Q 4550 3538 4550 2338
Q 4550 1131 3912 565
Q 3275 0 1925 0
L 628 0
L 628 4666
z
" transform="scale(0.015625)"/>
      <path id="DejaVuSans-35" d="M 691 4666
L 3169 4666
L 3169 4134
L 1269 4134
L 1269 2991
Q 1406 3038 1543 3061
Q 1681 3084 1819 3084
Q 2600 3084 3056 2656
Q 3513 2228 3513 1497
Q 3513 744 3044 326
Q 2575 -91 1722 -91
Q 1428 -91 1123 -41
Q 819 9 494 109
L 494 744
Q 775 591 1075 516
Q 1375 441 1709 441
Q 2250 441 2565 725
Q 2881 1009 2881 1497
Q 2881 1984 2565 2268
Q 2250 2553 1709 2553
Q 1456 2553 1204 2497
Q 953 2441 691 2322
L 691 4666
z
" transform="scale(0.015625)"/>
     </defs>
     <use xlink:href="#DejaVuSans-52"/>
     <use xlink:href="#DejaVuSans-32" transform="translate(69.482422 0)"/>
     <use xlink:href="#DejaVuSans-2d" transform="translate(133.105469 0)"/>
     <use xlink:href="#DejaVuSans-32" transform="translate(169.189453 0)"/>
     <use xlink:href="#DejaVuSans-44" transform="translate(232.8125 0)"/>
     <use xlink:href="#DejaVuSans-20" transform="translate(309.814453 0)"/>
     <use xlink:href="#DejaVuSans-34" transform="translate(341.601562 0)"/>
     <use xlink:href="#DejaVuSans-35" transform="translate(405.224609 0)"/>
     <use xlink:href="#DejaVuSans-33" transform="translate(468.847656 0)"/>
     <use xlink:href="#DejaVuSans-20" transform="translate(532.470703 0)"/>
     <use xlink:href="#DejaVuSans-6e" transform="translate(564.257812 0)"/>
     <use xlink:href="#DejaVuSans-6d" transform="translate(627.636719 0)"/>
     <use xlink:href="#DejaVuSans-20" transform="translate(725.048828 0)"/>
     <use xlink:href="#DejaVuSans-73" transform="translate(756.835938 0)"/>
     <use xlink:href="#DejaVuSans-79" transform="translate(808.935547 0)"/>
     <use xlink:href="#DejaVuSans-6d" transform="translate(868.115234 0)"/>
     <use xlink:href="#DejaVuSans-6d" transform="translate(965.527344 0)"/>
     <use xlink:href="#DejaVuSans-65" transform="translate(1062.939453 0)"/>
     <use xlink:href="#DejaVuSans-74" transform="translate(1124.462891 0)"/>
     <use xlink:href="#DejaVuSans-72" transform="translate(1163.671875 0)"/>
     <use xlink:href="#DejaVuSans-69" transform="translate(1204.785156 0)"/>
     <use xlink:href="#DejaVuSans-63" transform="translate(1232.568359 0)"/>
     <use xlink:href="#DejaVuSans-20" transform="translate(1287.548828 0)"/>
     <use xlink:href="#DejaVuSans-6f" transform="translate(1319.335938 0)"/>
     <use xlink:href="#DejaVuSans-66" transform="translate(1380.517578 0)"/>
     <use xlink:href="#DejaVuSans-66" transform="translate(1415.722656 0)"/>
     <use xlink:href="#DejaVuSans-2d" transform="translate(1445.427734 0)"/>
     <use xlink:href="#DejaVuSans-61" transform="translate(1481.511719 0)"/>
     <use xlink:href="#DejaVuSans-78" transform="translate(1542.791016 0)"/>
     <use xlink:href="#DejaVuSans-69" transform="translate(1601.970703 0)"/>
     <use xlink:href="#DejaVuSans-73" transform="translate(1629.753906 0)"/>
     <use xlink:href="#DejaVuSans-20" transform="translate(1681.853516 0)"/>
     <use xlink:href="#DejaVuSans-64" transform="translate(1713.640625 0)"/>
     <use xlink:href="#DejaVuSans-6f" transform="translate(1777.117188 0)"/>
     <use xlink:href="#DejaVuSans-75" transform="translate(1838.298828 0)"/>
     <use xlink:href="#DejaVuSans-62" transform="translate(1901.677734 0)"/>
     <use xlink:href="#DejaVuSans-6c" transform="translate(1965.154297 0)"/>
     <use xlink:href="#DejaVuSans-65" transform="translate(1992.9375 0)"/>
     <use xlink:href="#DejaVuSans-2d" transform="translate(2054.460938 0)"/>
     <use xlink:href="#DejaVuSans-6c" transform="translate(2090.544922 0)"/>
     <use xlink:href="#DejaVuSans-6f" transform="translate(2118.328125 0)"/>
     <use xlink:href="#DejaVuSans-62" transform="translate(2179.509766 0)"/>
     <use xlink:href="#DejaVuSans-65" transform="translate(2242.986328 0)"/>
    </g>
   </g>
   <g id="legend_1">
    <g id="line2d_19">
     <path d="M 149.798672 390.964677
L 159.798672 390.964677
L 169.798672 390.964677
" style="fill: none; stroke: #1f77b4; stroke-width: 2; stroke-linecap: square"/>
    </g>
    <g id="text_18">
     <!-- incoherent x + z -->
     <g transform="translate(177.798672 394.464677) scale(0.1 -0.1)">
      <defs>
       <path id="DejaVuSans-68" d="M 3513 2113
L 3513 0
L 2938 0
L 2938 2094
Q 2938 2591 2744 2837
Q 2550 3084 2163 3084
Q 1697 3084 1428 2787
Q 1159 2491 1159 1978
L 1159 0
L 581 0
L 581 4863
L 1159 4863
L 1159 2956
Q 1366 3272 1645 3428
Q 1925 3584 2291 3584
Q 2894 3584 3203 3211
Q 3513 2838 3513 2113
z
" transform="scale(0.015625)"/>
       <path id="DejaVuSans-7a" d="M 353 3500
L 3084 3500
L 3084 2975
L 922 459
L 3084 459
L 3084 0
L 275 0
L 275 525
L 2438 3041
L 353 3041
L 353 3500
z
" transform="scale(0.015625)"/>
      </defs>
      <use xlink:href="#DejaVuSans-69"/>
      <use xlink:href="#DejaVuSans-6e" transform="translate(27.783203 0)"/>
      <use xlink:href="#DejaVuSans-63" transform="translate(91.162109 0)"/>
      <use xlink:href="#DejaVuSans-6f" transform="translate(146.142578 0)"/>
      <use xlink:href="#DejaVuSans-68" transform="translate(207.324219 0)"/>
      <use xlink:href="#DejaVuSans-65" transform="translate(270.703125 0)"/>
      <use xlink:href="#DejaVuSans-72" transform="translate(332.226562 0)"/>
      <use xlink:href="#DejaVuSans-65" transform="translate(371.089844 0)"/>
      <use xlink:href="#DejaVuSans-6e" transform="translate(432.613281 0)"/>
      <use xlink:href="#DejaVuSans-74" transform="translate(495.992188 0)"/>
      <use xlink:href="#DejaVuSans-20" transform="translate(535.201172 0)"/>
      <use xlink:href="#DejaVuSans-78" transform="translate(566.988281 0)"/>
      <use xlink:href="#DejaVuSans-20" transform="translate(626.167969 0)"/>
      <use xlink:href="#DejaVuSans-2b" transform="translate(657.955078 0)"/>
      <use xlink:href="#DejaVuSans-20" transform="translate(741.744141 0)"/>
      <use xlink:href="#DejaVuSans-7a" transform="translate(773.53125 0)"/>
     </g>
    </g>
   </g>
  </g>
 </g>
 <defs>
  <clipPath id="p90f30ba9d8">
   <path d="M 354.787453 258.850125
C 354.787453 219.165625 339.006032 181.065904 310.944853 153.004725
C 282.883674 124.943546 244.783953 109.162125 205.099453 109.162125
C 165.414953 109.162125 127.315232 124.943546 99.254053 153.004725
C 71.192874 181.065904 55.411453 219.165625 55.411453 258.850125
L 205.099453 258.850125
C 205.099453 258.850125 205.099453 258.850125 205.099453 258.850125
C 205.099453 258.850125 205.099453 258.850125 205.099453 258.850125
C 205.099453 258.850125 205.099453 258.850125 205.099453 258.850125
C 205.099453 258.850125 205.099453 258.850125 205.099453 258.850125
z
"/>
  </clipPath>
 </defs>
</svg>
